<svg width="45" height="45" viewBox="0 0 45 45" fill="none" xmlns="http://www.w3.org/2000/svg">
<rect width="45" height="45" rx="22.5" fill="#06ADB7"/>
<g clip-path="url(#clip0_2568_13201)">
<path d="M19 21H16V18H14V21H11V23H14V26H16V23H19V21ZM29 22C30.66 22 31.99 20.66 31.99 19C31.99 17.34 30.66 16 29 16C28.68 16 28.37 16.05 28.09 16.14C28.66 16.95 28.99 17.93 28.99 19C28.99 20.07 28.65 21.04 28.09 21.86C28.37 21.95 28.68 22 29 22ZM24 22C25.66 22 26.99 20.66 26.99 19C26.99 17.34 25.66 16 24 16C22.34 16 21 17.34 21 19C21 20.66 22.34 22 24 22ZM30.62 24.16C31.45 24.89 32 25.82 32 27V29H35V27C35 25.46 32.63 24.51 30.62 24.16ZM24 24C22 24 18 25 18 27V29H30V27C30 25 26 24 24 24Z" fill="white"/>
</g>
<defs>
<clipPath id="clip0_2568_13201">
<rect width="24" height="24" fill="white" transform="translate(11 11)"/>
</clipPath>
</defs>
</svg>
