<svg width="42" height="43" viewBox="0 0 42 43" fill="none" xmlns="http://www.w3.org/2000/svg">
<path d="M21 41.5C32.0457 41.5 41 32.5457 41 21.5C41 10.4543 32.0457 1.5 21 1.5C9.95431 1.5 1 10.4543 1 21.5C1 32.5457 9.95431 41.5 21 41.5Z" fill="#E0E0E0"/>
<path d="M29.2153 12.0983H12.7963C12.7042 12.0978 12.6134 12.1205 12.5322 12.1641C12.4511 12.2078 12.3822 12.271 12.3317 12.3481L7.66811 19.2164C7.6023 19.3157 7.56979 19.4333 7.57531 19.5523C7.58083 19.6713 7.62407 19.7854 7.69878 19.8782L20.5719 35.7713C20.624 35.8378 20.6905 35.8915 20.7664 35.9285C20.8424 35.9655 20.9257 35.9848 21.0102 35.9848C21.0947 35.9848 21.178 35.9655 21.254 35.9285C21.3299 35.8915 21.3964 35.8378 21.4485 35.7713L34.3216 19.8782C34.3963 19.7854 34.4396 19.6713 34.4451 19.5523C34.4506 19.4333 34.4181 19.3157 34.3523 19.2164L29.6931 12.3481C29.6408 12.2696 29.5697 12.2056 29.4862 12.162C29.4027 12.1183 29.3095 12.0964 29.2153 12.0983ZM28.3124 14.338L31.2666 18.8131H28.0757L25.665 14.338H28.3124ZM18.8888 14.338H23.1185L25.5292 18.8131H16.4825L18.8888 14.338ZM13.6992 14.338H16.3291L13.9184 18.8131H10.7275L13.6992 14.338ZM11.6918 21.0529H14.0893L17.2758 28.5041L11.6918 21.0529ZM16.4912 21.0529H25.5204L21.0058 32.405L16.4912 21.0572V21.0529ZM24.7358 28.5041L27.9179 21.0529H30.3155L24.7358 28.5041Z" fill="#009CFF"/>
</svg>
