<svg width="21" height="32" viewBox="0 0 21 32" fill="none" xmlns="http://www.w3.org/2000/svg">
<path d="M10.1125 31.9901C9.48071 31.9917 8.8708 31.759 8.40065 31.337C8.15233 31.1188 7.95725 30.8466 7.83033 30.5413C7.70342 30.236 7.64804 29.9057 7.66843 29.5758V29.5164C7.6651 29.1953 7.72747 28.877 7.85168 28.5809C7.9759 28.2848 8.15935 28.0173 8.39076 27.7947C8.79623 27.3958 9.32811 27.1509 9.89477 27.1021H10.3203C10.9458 27.1176 11.5396 27.3804 11.9717 27.833C12.4039 28.2855 12.639 28.8908 12.6258 29.5164V29.5857C12.6423 29.9128 12.586 30.2396 12.4611 30.5424C12.3362 30.8453 12.1458 31.1166 11.9034 31.337C11.4492 31.7667 10.8465 32.0042 10.2213 32L10.1125 31.9901Z" fill="white"/>
<path d="M9.55842 23.2628C9.08552 23.2661 8.62911 23.0892 8.28199 22.7681C8.09219 22.5381 7.94986 22.2727 7.86324 21.9874C7.77663 21.7021 7.74743 21.4024 7.77735 21.1057C7.74058 20.1849 7.88793 19.2661 8.21075 18.4029C8.53357 17.5398 9.02538 16.7498 9.65737 16.0791C10.449 15.2579 11.29 14.4465 12.1707 13.6945C13.0513 12.9425 13.8429 12.1905 14.2882 11.7155C14.7622 11.2367 15.1714 10.6978 15.5052 10.1125C15.8594 9.4592 16.0464 8.72833 16.0494 7.98515C16.0561 7.29391 15.9157 6.60916 15.6376 5.97628C15.3596 5.3434 14.9502 4.77684 14.4366 4.31416C13.382 3.37559 12.019 2.85785 10.6073 2.85962H10.3896C9.62036 2.80376 8.8479 2.90766 8.12077 3.16479C7.39365 3.42192 6.72759 3.82673 6.16449 4.35374C5.16489 5.5027 4.42265 6.85221 3.98762 8.31168C3.48298 9.98391 2.64192 10.2016 2.00865 10.2016C1.74041 10.2019 1.4749 10.1477 1.22826 10.0422C0.981618 9.93677 0.758987 9.78227 0.573899 9.58811C0.398192 9.42628 0.256839 9.23075 0.158246 9.01316C0.0596524 8.79558 0.00583603 8.56038 0 8.32158C0.026824 6.96193 0.446036 5.63901 1.20717 4.51206C2.09591 3.16915 3.30697 2.07034 4.72974 1.31602C6.38957 0.453669 8.23216 0.00235135 10.1026 6.61655e-06H10.6864C12.4387 -0.00182411 14.1705 0.376271 15.7625 1.10823C17.1639 1.76665 18.3607 2.79248 19.2257 4.07669C20.015 5.24495 20.4324 6.62472 20.423 8.03462C20.4427 9.04073 20.2151 10.0363 19.76 10.9338C19.3153 11.7657 18.7483 12.5262 18.0779 13.1898C17.3259 13.9221 15.9901 15.1688 14.3277 16.6431C13.8647 17.0288 13.4284 17.4453 13.0216 17.8899C12.7147 18.2374 12.4491 18.6192 12.23 19.0278C12.056 19.3416 11.9167 19.6734 11.8144 20.0173L11.765 20.1855C11.6858 20.4922 11.5671 20.9672 11.4285 21.6104C11.2306 22.7384 10.7062 23.1935 9.63758 23.1935L9.55842 23.2628Z" fill="white"/>
</svg>
