<svg width="96" height="96" viewBox="0 0 96 96" fill="none" xmlns="http://www.w3.org/2000/svg">
<path d="M0 16C0 7.16345 7.16344 0 16 0H96V96H16C7.16345 96 0 88.8366 0 80V16Z" fill="#14D8C8"/>
<path d="M23.102 62.2251L42.6086 73.5612C43.0221 73.8023 43.6881 73.8023 44.1015 73.565L73.7413 56.4503C74.1547 56.213 74.1547 55.8263 73.7413 55.5852L54.2346 44.2492C53.825 44.0118 53.1589 44.0118 52.7455 44.2492L23.1058 61.3601C22.6924 61.6012 22.6886 61.9878 23.102 62.2251Z" fill="#BDBDBD"/>
<path d="M46.1528 63.3773C45.9197 63.5119 45.9211 63.7311 46.1527 63.8657L50.9612 66.6601C51.1928 66.7947 51.5713 66.7962 51.8044 66.6616L61.28 61.1909C61.5131 61.0563 61.5117 60.837 61.2801 60.7025L56.4716 57.9081C56.24 57.7735 55.8615 57.772 55.6284 57.9066L46.1528 63.3773Z" fill="white"/>
<path d="M22.7958 61.7965L22.7996 62.9376C22.7996 63.0907 22.9029 63.2476 23.1058 63.3663L42.6125 74.7023C43.0259 74.9396 43.692 74.9396 44.1054 74.7023L73.7451 57.5914C73.9518 57.4728 74.0552 57.3158 74.0552 57.155L74.0513 56.0178C74.0513 56.1748 73.948 56.3317 73.7413 56.4504L44.1016 73.5651C43.6881 73.8024 43.0221 73.8024 42.6087 73.5613L23.102 62.2252C22.8953 62.1066 22.7958 61.9535 22.7958 61.7965Z" fill="white"/>
<path d="M52.6879 21.6777C53.1009 21.4392 53.4368 21.6306 53.4382 22.1052L53.491 42.9581C53.4923 43.4299 53.1586 44.0108 52.7456 44.2492L23.533 61.1135C23.12 61.352 22.784 61.1578 22.7827 60.686L22.7299 39.8331C22.7285 39.3585 23.0623 38.7804 23.4753 38.542L52.6879 21.6777Z" fill="#828282"/>
<path d="M21.9453 39.3784L21.9989 60.2305C21.9989 60.464 22.0831 60.6324 22.2171 60.709L23.0006 61.1646C22.8666 61.0881 22.7824 60.9196 22.7824 60.6861L22.7288 39.834C22.7288 39.3594 23.0618 38.7814 23.4753 38.5402L52.688 21.6778C52.8947 21.5591 53.0823 21.5477 53.2201 21.6242L52.4366 21.1686C52.3026 21.092 52.1112 21.1035 51.9045 21.2222L22.6918 38.0884C22.2783 38.3257 21.9453 38.9037 21.9453 39.3784Z" fill="white"/>
<path d="M23.7842 39.5787L23.835 59.7238L52.4366 43.2123L52.3858 23.0671L23.7842 39.5787Z" fill="white"/>
<path d="M23.7842 39.5787L23.7927 42.9576L52.3943 26.4461L52.3858 23.0671L23.7842 39.5787Z" fill="#BDBDBD"/>
<path d="M47.6697 27.0645C47.9454 26.9053 48.1696 27.0276 48.1705 27.3444C48.1714 27.6613 47.9487 28.047 47.6729 28.2062C47.402 28.3627 47.1778 28.2349 47.1769 27.9181C47.176 27.6013 47.3987 27.221 47.6697 27.0645Z" fill="white"/>
<path d="M49.2623 26.1448C49.5333 25.9883 49.7575 26.1106 49.7584 26.4274C49.7593 26.7442 49.5366 27.13 49.2656 27.2865C48.9898 27.4457 48.7657 27.3179 48.7648 27.0011C48.7639 26.6843 48.9866 26.304 49.2623 26.1448Z" fill="white"/>
<path d="M50.8502 25.2282C51.126 25.069 51.3501 25.1913 51.351 25.5081C51.3519 25.825 51.1292 26.2107 50.8535 26.3699C50.5777 26.5291 50.3536 26.4014 50.3527 26.0845C50.3518 25.7677 50.5745 25.3874 50.8502 25.2282Z" fill="white"/>
<path d="M29.084 60.8254L27.2117 61.9135L26.4052 61.4478L28.2774 60.3597L29.084 60.8254Z" fill="white"/>
<path d="M49.2297 49.1181L47.3549 50.2077L46.5483 49.742L48.4232 48.6525L49.2297 49.1181Z" fill="white"/>
<path d="M54.2662 46.1913L52.3914 47.2808L51.5848 46.8151L53.4597 45.7256L54.2662 46.1913Z" fill="white"/>
<path d="M50.9059 53.0049L49.0336 54.0929L47.3688 53.1318L49.2411 52.0437L50.9059 53.0049Z" fill="white"/>
<path d="M60.1406 52.5017L58.2658 53.5913L56.5984 52.6286L58.4732 51.5391L60.1406 52.5017Z" fill="white"/>
<path d="M62.6602 51.0374L60.7853 52.1269L57.0188 49.9523L58.8937 48.8628L62.6602 51.0374Z" fill="white"/>
<path d="M56.3652 47.4032L52.9082 49.4122L51.2408 48.4495L54.6978 46.4406L56.3652 47.4032Z" fill="white"/>
<path d="M52.2663 49.7851L50.3914 50.8746L48.724 49.9119L50.5989 48.8224L52.2663 49.7851Z" fill="white"/>
<path d="M58.4618 48.6138L54.0674 51.1675L52.4026 50.2063L56.797 47.6526L58.4618 48.6138Z" fill="white"/>
<path d="M53.4252 51.5405L51.5503 52.6301L49.8855 51.6689L51.7604 50.5793L53.4252 51.5405Z" fill="white"/>
<path d="M55.5244 52.7526L53.6496 53.8421L51.9822 52.8795L53.857 51.7899L55.5244 52.7526Z" fill="white"/>
<path d="M49.7468 51.2496L47.872 52.3392L46.2046 51.3765L48.0794 50.287L49.7468 51.2496Z" fill="white"/>
<path d="M46.7103 50.5824L44.8381 51.6704L44.0315 51.2048L45.9038 50.1167L46.7103 50.5824Z" fill="white"/>
<path d="M44.1934 52.045L42.3185 53.1345L41.512 52.6689L43.3868 51.5793L44.1934 52.045Z" fill="white"/>
<path d="M45.4516 58.6062L43.5767 59.6958L41.9093 58.7331L43.7842 57.6436L45.4516 58.6062Z" fill="white"/>
<path d="M41.674 53.5091L39.8017 54.5972L38.9951 54.1315L40.8674 53.0435L41.674 53.5091Z" fill="white"/>
<path d="M44.7105 54.1762L42.8382 55.2642L41.1708 54.3016L43.0431 53.2135L44.7105 54.1762Z" fill="white"/>
<path d="M39.157 54.9716L37.2821 56.0612L36.4756 55.5955L38.3505 54.506L39.157 54.9716Z" fill="white"/>
<path d="M42.1937 55.6389L40.3189 56.7285L38.6515 55.7658L40.5263 54.6763L42.1937 55.6389Z" fill="white"/>
<path d="M45.8695 55.9313L43.9972 57.0193L42.3324 56.0582L44.2047 54.9701L45.8695 55.9313Z" fill="white"/>
<path d="M36.64 56.4345L34.7652 57.5241L33.9586 57.0584L35.8335 55.9689L36.64 56.4345Z" fill="white"/>
<path d="M39.6765 57.1018L37.8017 58.1914L36.1343 57.2287L38.0091 56.1392L39.6765 57.1018Z" fill="white"/>
<path d="M47.9688 57.1433L46.0965 58.2314L44.4291 57.2687L46.3014 56.1807L47.9688 57.1433Z" fill="white"/>
<path d="M43.3525 57.3942L41.4777 58.4837L39.8129 57.5225L41.6877 56.433L43.3525 57.3942Z" fill="white"/>
<path d="M34.1206 57.8989L32.2458 58.9884L31.4392 58.5228L33.3141 57.4332L34.1206 57.8989Z" fill="white"/>
<path d="M37.1571 58.5658L35.2823 59.6554L33.6149 58.6927L35.4897 57.6031L37.1571 58.5658Z" fill="white"/>
<path d="M40.8358 58.8569L38.9609 59.9465L37.2961 58.9853L39.171 57.8958L40.8358 58.8569Z" fill="white"/>
<path d="M34.6403 60.0286L32.7654 61.1181L31.098 60.1555L32.9729 59.0659L34.6403 60.0286Z" fill="white"/>
<path d="M42.9347 60.0689L41.0599 61.1584L39.3925 60.1957L41.2673 59.1062L42.9347 60.0689Z" fill="white"/>
<path d="M38.3164 60.321L36.4415 61.4106L34.7767 60.4494L36.6516 59.3599L38.3164 60.321Z" fill="white"/>
<path d="M40.4154 61.5327L38.5406 62.6223L36.8732 61.6596L38.748 60.5701L40.4154 61.5327Z" fill="white"/>
<path d="M50.1756 58.2925L40.6394 63.8343L38.972 62.8716L48.5082 57.3298L50.1756 58.2925Z" fill="white"/>
<path d="M37.8986 62.9955L36.0237 64.0851L34.3563 63.1224L36.2312 62.0328L37.8986 62.9955Z" fill="white"/>
<path d="M35.7993 61.7836L31.4075 64.3358L29.7427 63.3746L34.1345 60.8224L35.7993 61.7836Z" fill="white"/>
<path d="M35.3788 64.4599L33.5065 65.5479L31.8391 64.5853L33.7114 63.4972L35.3788 64.4599Z" fill="white"/>
<path d="M39.9975 64.2075L35.6057 66.7598L33.9384 65.7971L38.3302 63.2449L39.9975 64.2075Z" fill="white"/>
<path d="M31.6034 59.3613L29.7285 60.4508L28.922 59.9852L30.7969 58.8956L31.6034 59.3613Z" fill="white"/>
<path d="M51.7468 47.6552L49.872 48.7448L49.0654 48.2791L50.9403 47.1896L51.7468 47.6552Z" fill="white"/>
<path d="M47.2299 52.7123L45.355 53.8018L43.6876 52.8392L45.5625 51.7496L47.2299 52.7123Z" fill="white"/>
<path d="M52.5872 56.8914L50.7123 57.9809L49.0449 57.0183L50.9198 55.9287L52.5872 56.8914Z" fill="white"/>
<path d="M50.4882 55.6791L48.6133 56.7687L46.9459 55.806L48.8208 54.7164L50.4882 55.6791Z" fill="white"/>
<path d="M48.389 54.4673L46.5142 55.5568L44.8494 54.5957L46.7242 53.5061L48.389 54.4673Z" fill="white"/>
<path d="M57.6238 53.9644L55.7489 55.0539L54.0815 54.0913L55.9564 53.0017L57.6238 53.9644Z" fill="white"/>
<path d="M55.104 55.4284L53.2317 56.5164L51.5643 55.5538L53.4366 54.4657L55.104 55.4284Z" fill="white"/>
<path d="M32.1204 61.4927L29.3107 63.1255L27.6433 62.1629L30.453 60.53L32.1204 61.4927Z" fill="white"/>
<path d="M26.4428 44.9032C26.8058 44.6936 27.0202 44.7395 27.1736 44.8785L26.9675 45.2125C26.8357 45.0797 26.6666 45.0905 26.4599 45.2098C26.0394 45.4526 25.7727 45.981 25.7741 46.489C25.7755 46.9949 26.0444 47.2182 26.4649 46.9754C26.6716 46.8561 26.8402 46.6656 26.9708 46.3855L27.1781 46.483C27.026 46.8004 26.8126 47.0932 26.4496 47.3028C25.8566 47.6452 25.4561 47.351 25.4542 46.6737C25.4523 45.9963 25.8498 45.2456 26.4428 44.9032Z" fill="white"/>
<path d="M27.7801 46.003C27.9024 45.9325 28.0072 45.9921 28.0076 46.1325C28.008 46.275 27.9039 46.4528 27.7816 46.5234C27.6574 46.595 27.5545 46.5364 27.5541 46.3939C27.5537 46.2535 27.6559 46.0746 27.7801 46.003Z" fill="white"/>
<path d="M27.9352 44.5103C28.0237 44.3578 28.0239 44.1925 27.9355 44.1411C27.8472 44.0897 27.7038 44.1716 27.6153 44.3242C27.5267 44.4767 27.5266 44.642 27.6149 44.6934C27.7033 44.7448 27.8467 44.6628 27.9352 44.5103Z" fill="white"/>
<path d="M28.4672 42.8242L29.4525 45.6061L29.2099 45.7462L28.2246 42.9643L28.4672 42.8242Z" fill="white"/>
<path d="M30.3875 41.395L32.1075 42.3773L30.3986 45.3392L30.1228 45.182L31.5612 42.6927L30.1134 41.8697L30.3875 41.395Z" fill="white"/>
<path d="M34.0284 42.381L34.0305 43.1202L32.2316 44.1588L32.2295 43.4196L34.0284 42.381Z" fill="white"/>
</svg>
