<svg width="78" height="79" viewBox="0 0 78 79" fill="none" xmlns="http://www.w3.org/2000/svg">
<path d="M28.4551 14.8902C26.8926 15.5464 20.8458 18.062 17.4708 24.5777C16.752 25.9683 13.377 32.4839 15.8614 38.2339C19.1583 45.8589 29.1895 43.9995 33.7989 51.1714C37.752 57.3433 29.5489 63.4058 33.0801 70.7495C34.9239 74.5777 39.1739 77.7808 43.0958 78.0777C55.3614 78.9995 77.3926 52.5777 68.4395 31.8433C61.9083 16.7808 41.0958 9.62455 28.4551 14.8902Z" fill="url(#paint0_linear_850_12280)"/>
<path d="M53.455 26.7338L30.8769 18.3588C30.1894 18.1088 29.4394 18.4525 29.1894 19.14L13.9394 60.1869C13.6894 60.8744 14.0331 61.6244 14.7206 61.8744L37.2987 70.2494C37.9862 70.4994 38.7362 70.1557 38.9862 69.4682L54.2362 28.4057C54.4862 27.7338 54.1425 26.9838 53.455 26.7338Z" fill="#2D548D"/>
<path opacity="0.09" d="M39.9239 47.7652C39.3614 47.7652 38.7833 47.7496 38.1895 47.7183C29.4239 47.2339 22.2676 43.3277 19.0489 37.2808C13.9083 27.6246 18.9551 14.1714 26.6895 9.93707C30.5957 7.78082 33.9864 7.84332 36.1426 8.28082C39.8301 9.01519 42.5489 10.7183 43.7989 13.0621C45.1426 15.5777 44.4239 17.9371 43.6583 20.4214C42.9708 22.6558 42.2676 24.9527 43.1114 27.4371C43.8614 29.6558 45.8145 30.3433 47.8926 31.0777C50.002 31.8277 52.1895 32.5933 53.3614 35.0152C54.5958 37.5777 54.4395 41.0777 53.0176 43.1871C51.0801 45.9996 45.9551 47.7652 39.9239 47.7652ZM33.7051 8.21832C31.7833 8.21832 29.3926 8.65582 26.7832 10.0933C19.127 14.2964 14.127 27.6402 19.2208 37.2027C22.4083 43.2027 29.5176 47.0621 38.2208 47.5464C44.9083 47.9214 50.7989 46.1246 52.877 43.0933C54.2676 41.0464 54.4239 37.6089 53.2051 35.1089C52.0645 32.7496 49.9239 31.9996 47.8457 31.2652C45.7364 30.5152 43.7364 29.8121 42.9551 27.5152C42.0958 24.9683 42.8145 22.6402 43.502 20.3746C44.252 17.9214 44.9708 15.5933 43.6583 13.1402C42.4395 10.8433 39.752 9.17144 36.127 8.45269C35.4239 8.31207 34.6114 8.21832 33.7051 8.21832Z" fill="#AAAAD5"/>
<path opacity="0.2" d="M47.9863 24.7026L45.4863 26.3745L23.6582 41.0308L20.2051 43.3589L24.9551 30.5308L28.4238 28.2026L36.252 22.937L38.752 21.2651L47.9863 24.7026Z" fill="#EEEDF3"/>
<path opacity="0.2" d="M52.9551 26.5464L50.4551 28.2183L21.0957 47.937L17.627 50.2495L19.3145 45.7339L22.7676 43.4214V43.4058L47.2051 27.0151L49.7051 25.3276L52.9551 26.5464Z" fill="#EEEDF3"/>
<path d="M53.4549 26.7338L52.9549 26.5463L49.7049 25.3432L47.9862 24.7025L38.7518 21.2807L30.8768 18.3588C30.2049 18.1088 29.4393 18.4525 29.1893 19.14L24.9549 30.5463L20.1893 43.3744L19.2987 45.765L17.6268 50.2807L13.9393 60.2182C13.8924 60.3432 13.8768 60.4682 13.8612 60.5932C13.8143 61.1557 14.1581 61.7025 14.7206 61.9057L18.9081 63.4682L22.0643 64.64L30.4081 67.7338L33.4549 68.8588L37.2987 70.2807C37.9706 70.5307 38.7362 70.1869 38.9862 69.515L53.9549 29.2025L54.2362 28.4525C54.4862 27.7338 54.1424 26.9838 53.4549 26.7338ZM51.3143 29.2807L51.0018 30.14L38.1112 64.8744C37.9706 65.2338 37.5643 65.4369 37.1893 65.2963L34.3612 64.2494L30.9393 62.9838L23.8768 60.3588L20.6424 59.1557L18.0643 58.2025C17.7831 58.0932 17.6112 57.8432 17.6112 57.5619C17.6112 57.4682 17.6112 57.3744 17.6581 57.2807L21.1268 47.9525L22.7987 43.4369L23.6893 41.0463L28.4549 28.2182L30.8768 21.7025C31.0174 21.3432 31.4237 21.14 31.7831 21.2807L36.2831 22.9525L45.5174 26.3744L47.2362 27.015L50.4862 28.2182L50.9081 28.3744C51.2674 28.515 51.4549 28.9213 51.3143 29.2807Z" fill="#EEEDF3"/>
<path d="M25.3767 64.3745C24.7361 64.1401 24.408 63.4214 24.6423 62.7807C24.8767 62.1401 25.5954 61.812 26.2361 62.0464C26.8767 62.2808 27.2048 62.9995 26.9704 63.6401C26.7204 64.2964 26.0017 64.6089 25.3767 64.3745Z" fill="#C9C7D9"/>
<path opacity="0.1" d="M40.4708 2.51503L8.95522 12.9525C8.18959 13.2025 7.78334 14.0307 8.03334 14.7807L11.0958 23.9994C11.3458 24.765 12.174 25.1713 12.924 24.9213L16.0333 23.89L17.549 23.39C17.9396 23.64 18.9083 24.2963 19.299 24.5307C19.6583 24.7338 20.1271 24.5775 20.299 24.2025C20.4865 23.7807 20.8771 22.6869 21.0333 22.2494L28.6896 19.7025L44.4396 14.4838C45.2052 14.2338 45.6115 13.4057 45.3615 12.6557L42.299 3.43691C42.049 2.67128 41.2365 2.26503 40.4708 2.51503Z" fill="#3F3F3F"/>
<path d="M40.4707 0.0776324L6.6582 11.2808C5.8457 11.5464 5.4082 12.437 5.67382 13.2495L8.95507 23.1401C9.2207 23.9526 10.1113 24.3901 10.9238 24.1245L14.2519 23.0151L15.8769 22.4839C16.2832 22.7651 17.3301 23.4526 17.7519 23.7026C18.1269 23.9214 18.6426 23.7495 18.8301 23.3433C19.0176 22.8901 19.4551 21.7026 19.6113 21.2495L27.8301 18.5308L44.7363 12.9214C45.5488 12.6558 45.9863 11.7651 45.7207 10.9526L42.4394 1.06201C42.1738 0.249507 41.2988 -0.187993 40.4707 0.0776324Z" fill="url(#paint1_linear_850_12280)"/>
<path d="M15.2206 15.9213C15.455 15.5151 15.5175 15.0151 15.3612 14.5307L15.0956 13.7338C14.7987 12.8432 13.8612 12.2963 12.955 12.562C12.0175 12.8432 11.5175 13.8276 11.8143 14.7495L12.0956 15.6245C12.2518 16.1088 12.6112 16.4682 13.0331 16.6557C12.0643 17.3901 11.5018 18.562 11.58 19.7963C11.6112 20.2807 12.0956 20.5776 12.5487 20.437L17.83 18.687C18.2831 18.5307 18.4862 17.9995 18.2362 17.5932C17.58 16.5307 16.4393 15.9213 15.2206 15.9213Z" fill="white"/>
<path d="M27.9393 7.57762L21.205 9.812C20.6581 9.9995 20.3612 10.5932 20.5331 11.1401L21.6268 14.4526C21.8143 14.9995 22.4081 15.2964 22.955 15.1245L23.6112 14.9057C23.6112 14.9057 24.8612 15.7495 25.2831 15.9995C25.5956 16.1714 26.0175 16.0464 26.1581 15.7026C26.3612 15.2495 26.8612 13.8276 26.8612 13.8276L29.6893 12.8901C30.2362 12.7026 30.5331 12.1089 30.3612 11.562L29.2675 8.24949C29.08 7.68699 28.4862 7.39012 27.9393 7.57762Z" fill="white"/>
<path d="M22.3768 11.3433C22.158 11.3902 21.9236 11.2808 21.8611 11.0621C21.783 10.8277 21.908 10.5777 22.1424 10.5152L27.6111 8.70269C27.8299 8.62457 28.0955 8.74957 28.158 8.98394C28.2361 9.21832 28.1111 9.46832 27.8768 9.53082L22.408 11.3433C22.3924 11.3433 22.3924 11.3433 22.3768 11.3433Z" fill="#E2E1E1"/>
<path d="M22.8455 12.7808C22.6268 12.8277 22.3924 12.7183 22.3299 12.4996C22.2518 12.2652 22.3768 12.0152 22.6111 11.9527L28.0799 10.1402C28.2986 10.0621 28.5643 10.1871 28.6268 10.4214C28.7049 10.6558 28.5799 10.9058 28.3455 10.9683L22.8768 12.7808C22.8768 12.7652 22.8611 12.7808 22.8455 12.7808Z" fill="#E2E1E1"/>
<path d="M23.3301 14.2027C23.1114 14.2496 22.877 14.1402 22.8145 13.9214C22.7364 13.6871 22.8614 13.4371 23.0958 13.3746L25.5645 12.5621C25.7833 12.4839 26.0333 12.6089 26.1114 12.8433C26.1895 13.0777 26.0645 13.3277 25.8301 13.3902L23.3614 14.2027C23.3458 14.2027 23.3458 14.2027 23.3301 14.2027Z" fill="#E2E1E1"/>
<path d="M41.9707 9.14019C41.752 8.46832 41.3145 7.90582 40.7832 7.53082L40.5489 6.81207C40.1426 5.60894 38.9551 4.90582 37.7364 5.07769L37.6739 4.87457C37.5957 4.64019 37.3457 4.51519 37.1114 4.59332C36.877 4.67144 36.752 4.92144 36.8301 5.15582L36.8926 5.35894C35.8145 5.93707 35.2832 7.21832 35.6739 8.42145L35.9082 9.14019C35.7051 9.76519 35.6895 10.4683 35.9082 11.1402L36.0176 11.4527C36.0645 11.6089 36.2364 11.7027 36.3926 11.6402L37.5957 11.2339C37.6114 11.3277 37.6582 11.4214 37.7676 11.4527C38.2676 11.6246 38.8301 11.6246 39.377 11.4527C39.9239 11.2808 40.3614 10.9371 40.6739 10.4996C40.7364 10.4058 40.7364 10.2964 40.6895 10.2183L41.8926 9.81207C42.0489 9.7652 42.1426 9.59332 42.0801 9.43707L41.9707 9.14019Z" fill="white"/>
<path d="M36.846 11.1246C37.0803 11.8277 36.6897 12.6089 35.9866 12.8433C35.2835 13.0777 34.5022 12.6871 34.2678 11.9839C34.0335 11.2808 34.4241 10.4996 35.1272 10.2652C35.846 10.0308 36.6116 10.4058 36.846 11.1246Z" fill="#E83C3B"/>
<path opacity="0.1" d="M74.4707 29.062L65.8301 28.0308C65.4551 27.9839 65.1269 28.2495 65.0801 28.6245L64.0488 37.2651C64.0019 37.6401 64.2676 37.9683 64.6426 38.0151L73.2832 39.0464C73.6582 39.0933 73.9863 38.8276 74.0332 38.4526L75.0645 29.812C75.1113 29.4526 74.8457 29.1089 74.4707 29.062Z" fill="#3F3F3F"/>
<path d="M75.4863 37.8432L65.3925 36.6401C65.2206 36.6244 65.0956 36.4682 65.1269 36.2963L66.33 26.2026C66.3456 26.0307 66.5019 25.9057 66.6737 25.9369L76.7675 27.1401C76.9394 27.1557 77.0644 27.3119 77.0331 27.4838L75.83 37.5776C75.8144 37.7338 75.6581 37.8588 75.4863 37.8432Z" fill="#F8AA09"/>
<path d="M66.2051 35.5308L67.2051 27.1714C67.2207 27.062 67.3145 26.9995 67.4082 26.9995L75.7676 27.9995C75.877 28.0151 75.9395 28.1089 75.9395 28.2026L74.9395 36.562C74.9238 36.6714 74.8301 36.7339 74.7363 36.7339L66.377 35.7339C66.2676 35.7339 66.2051 35.6401 66.2051 35.5308Z" fill="#FBBA38"/>
<path d="M71.283 32.5932L70.3142 33.3588C70.1424 33.4994 69.8767 33.4682 69.7361 33.2963C69.5955 33.1244 69.3455 33.0932 69.158 33.2338L67.7361 34.3588C67.4549 34.5776 67.5799 35.0463 67.9392 35.0932L68.1111 35.1088L71.4705 35.5151L73.3611 35.7338C73.7205 35.7807 73.9548 35.3588 73.7361 35.0776L71.8611 32.6557C71.7205 32.4838 71.4549 32.4526 71.283 32.5932Z" fill="#EE9F05"/>
<path d="M69.5486 30.9682C69.5017 31.3589 69.1423 31.6401 68.7517 31.5932C68.3611 31.5464 68.0798 31.187 68.1267 30.7964C68.1736 30.4057 68.5329 30.1245 68.9236 30.1714C69.3142 30.2182 69.5954 30.5776 69.5486 30.9682Z" fill="#EE9F05"/>
<path opacity="0.1" d="M19.8458 53.5777C19.5177 52.5308 18.4083 51.9527 17.3614 52.2809L4.61142 56.3121C3.56454 56.6402 2.98642 57.7496 3.31454 58.7965L5.93954 67.0934C6.26767 68.1402 7.37704 68.7184 8.42392 68.3902L9.67392 67.9996C9.67392 67.9996 12.002 69.609 12.8145 70.0934C13.3927 70.4371 14.1895 70.1871 14.4708 69.5621C14.8614 68.7027 15.8302 66.0465 15.8302 66.0465L21.1739 64.359C22.2208 64.0309 22.7989 62.9215 22.4708 61.8746L19.8458 53.5777Z" fill="#3F3F3F"/>
<path d="M15.1582 50.3901L1.48635 54.7183C0.361346 55.0776 -0.248029 56.2651 0.0957209 57.3901L2.90822 66.2964C3.2676 67.4214 4.4551 68.0308 5.5801 67.687L6.90822 67.2651C6.90822 67.2651 9.40822 68.9995 10.2676 69.5151C10.8926 69.8901 11.752 69.6089 12.0488 68.9526C12.4707 68.0308 13.502 65.1714 13.502 65.1714L19.2363 63.3589C20.3613 62.9995 20.9707 61.812 20.627 60.687L17.8145 51.7808C17.4863 50.6558 16.2832 50.0308 15.1582 50.3901Z" fill="url(#paint2_linear_850_12280)"/>
<path d="M15.2051 54.9994L4.1114 58.5151C3.75202 58.6244 3.3614 58.4369 3.25202 58.0619C3.14265 57.7026 3.34577 57.3119 3.70515 57.2026L14.7989 53.6869C15.1583 53.5776 15.5489 53.7651 15.6583 54.1401C15.7676 54.4994 15.5645 54.8901 15.2051 54.9994Z" fill="#EDB7D5"/>
<path d="M16.1893 58.1401L5.09553 61.6557C4.73615 61.7651 4.34553 61.5776 4.23615 61.2026C4.12678 60.8432 4.3299 60.4526 4.68928 60.3432L15.783 56.8276C16.1424 56.7182 16.533 56.9057 16.6424 57.2807C16.7518 57.6244 16.5486 58.0151 16.1893 58.1401Z" fill="#EDB7D5"/>
<path d="M11.0955 63.1871L6.09553 64.7652C5.73615 64.8746 5.34553 64.6714 5.23615 64.3121C5.12678 63.9527 5.3299 63.5621 5.68928 63.4527L10.6893 61.8746C11.0487 61.7652 11.4393 61.9683 11.5487 62.3277C11.658 62.6871 11.4549 63.0777 11.0955 63.1871Z" fill="#EDB7D5"/>
<path opacity="0.1" d="M43.1114 34.8746C42.9239 34.0777 41.8614 33.9058 41.4239 34.609L39.6739 37.4371L38.6895 33.3277C38.4864 32.4996 37.6583 31.984 36.8302 32.1871L25.5333 34.8746C24.7052 35.0777 24.1895 35.9058 24.3927 36.734L27.0802 48.0308C27.2833 48.859 28.1114 49.3746 28.9395 49.1715L40.2364 46.484C41.0645 46.2808 41.5802 45.4527 41.377 44.6246L40.3927 40.5152L43.2208 42.2652C43.9239 42.7027 44.7989 42.0621 44.5958 41.2652L43.1114 34.8746Z" fill="#3F3F3F"/>
<path d="M42.7679 31.5309L40.8929 34.5777L39.846 30.1715C39.6273 29.2809 38.7367 28.734 37.846 28.9371L25.721 31.8277C24.8304 32.0465 24.2835 32.9371 24.4867 33.8277L27.3773 45.9527C27.596 46.8434 28.4867 47.3902 29.3773 47.1871L41.5023 44.2965C42.3929 44.0777 42.9398 43.1871 42.7367 42.2965L41.6898 37.8902L44.7367 39.7652C45.4867 40.234 46.4242 39.5465 46.2211 38.6871L44.5804 31.8277C44.3773 30.9684 43.2367 30.7809 42.7679 31.5309Z" fill="#E83B5B"/>
<path d="M31.4553 34.7964L35.8928 37.5151L33.1584 41.9527" fill="white"/>
<path d="M51.1311 52.3747L32.6926 55.3118L34.3517 65.7268L52.7901 62.7897L51.1311 52.3747Z" fill="#E83C3B"/>
<path d="M42.7366 59.062L51.1272 52.3901L32.6897 55.3276L42.7366 59.062Z" fill="#EE7375"/>
<path d="M54.877 70.2651H65.4238C65.7363 70.2651 66.002 69.9995 66.002 69.687C66.002 69.3745 65.7363 69.1089 65.4238 69.1089H54.877C54.5645 69.1089 54.2988 69.3745 54.2988 69.687C54.2988 70.0151 54.5488 70.2651 54.877 70.2651Z" fill="#E2E2E1"/>
<path d="M58.3613 67.812L57.8613 64.7651L59.2363 64.3433L59.4551 67.5933L58.3613 67.812Z" fill="#D7DDE9"/>
<path d="M59.5019 67.2651C59.5957 67.2807 59.6738 67.312 59.7519 67.3745C60.2363 67.7807 61.7207 68.4995 62.4707 68.6089C63.2832 68.7339 63.3301 69.1245 62.1738 69.1245C61.0332 69.1245 60.1894 69.0151 59.6894 69.0308C59.1738 69.0464 59.3144 69.1245 58.0645 69.1245C57.0957 69.1245 57.4082 67.8901 57.752 67.3276C57.8613 67.1557 58.002 67.062 58.2051 67.0776L59.5019 67.2651Z" fill="#ED9558"/>
<path d="M53.9392 64.9683L55.8455 62.5464L57.0798 63.2808L54.8455 65.6245L53.9392 64.9683Z" fill="#D7DDE9"/>
<path d="M55.1267 65.437C55.1736 65.5152 55.2205 65.5933 55.2205 65.687C55.2517 66.312 55.7361 67.937 56.3142 68.4527C56.8924 68.9839 56.5174 69.1089 55.5799 68.6714C54.5486 68.187 54.3142 67.1402 53.9549 66.7808C53.5955 66.4214 53.6268 66.562 52.783 65.6402C52.1268 64.937 53.2361 64.3277 53.8924 64.187C54.0955 64.1402 54.2518 64.187 54.3768 64.3589L55.1267 65.437Z" fill="#ED9558"/>
<path d="M53.08 13.4685C53.08 13.4685 52.705 15.9685 53.4237 17.1248C54.1425 18.281 54.2518 18.4529 54.2518 18.4529" fill="#ED8C61"/>
<path d="M54.924 19.5622C54.7209 19.6872 54.4865 19.7497 54.2677 19.7497C53.8302 19.7497 53.3927 19.5309 53.1583 19.109C53.1427 19.0934 53.0177 18.8747 52.3458 17.8122C51.8771 17.0622 51.7208 16.0465 51.7052 15.1559C51.674 14.2809 51.7677 13.5309 51.8146 13.2809C51.924 12.5778 52.5802 12.0778 53.299 12.1872C54.0021 12.2965 54.5021 12.9528 54.3927 13.6715C54.3302 14.0465 54.3146 14.484 54.3146 14.8903C54.3146 15.3122 54.3458 15.7184 54.4083 16.0153C54.4396 16.1872 54.4865 16.3434 54.549 16.4372C55.2834 17.609 55.3927 17.7965 55.3927 17.7965C55.7521 18.4059 55.549 19.2028 54.924 19.5622Z" fill="#F6AD86"/>
<path d="M50.1271 33.8745C50.3927 30.1401 49.1427 20.8745 48.5021 17.187C48.4083 16.6245 48.8302 16.1089 49.4083 16.1089H57.0802C57.4865 16.1089 57.8615 16.3901 57.9708 16.7808C58.8458 20.1245 59.4083 33.8589 59.4083 33.8589H50.1271V33.8745Z" fill="#E8E8E8"/>
<path d="M62.7989 26.1089C62.6739 25.4058 61.8146 23.6089 60.8614 21.7339C59.8458 19.7495 58.7052 17.6558 58.1739 16.7183C57.8771 16.187 57.2052 15.9995 56.6739 16.2808C56.1427 16.5777 55.9552 17.2495 56.2364 17.7808C57.0489 19.2495 57.8771 20.7964 58.6114 22.187C59.4396 23.7808 60.2364 24.7495 60.5646 25.5308C59.9708 26.0464 58.4864 26.0933 57.3146 26.0152C56.9864 25.9839 55.7364 25.8902 54.9083 26.6558C54.5802 26.9527 54.2052 27.4995 54.2364 28.3589C54.2677 28.9527 54.3458 29.187 54.8771 29.4527C55.0958 29.562 55.3771 29.5777 55.6114 29.562C56.2208 29.4839 56.2677 29.1558 56.2677 28.4527C56.2677 27.9527 56.5333 27.4527 56.5333 27.4527C56.5333 27.4527 58.3146 27.8902 59.7989 28.0777C61.2833 28.2652 61.8927 27.9683 62.4396 27.3589C62.7521 26.9995 62.8771 26.5464 62.7989 26.1089Z" fill="#F6AD86"/>
<path d="M50.5334 39.9058C50.5334 39.9058 49.4084 37.8433 50.1272 33.8745H59.3928C59.3928 33.8745 59.5178 36.8901 59.3147 39.9058H50.5334Z" fill="#3A63A9"/>
<path d="M60.8456 21.734L59.7674 21.9528L58.6112 22.1871C57.8925 20.7965 57.0487 19.234 56.2362 17.7809C55.9393 17.2496 56.1425 16.5778 56.6737 16.2809C57.2049 15.984 57.8768 16.1871 58.1737 16.7184C58.6893 17.6559 59.8299 19.7496 60.8456 21.734Z" fill="#ED8C61"/>
<path d="M50.4238 16.9841C50.2832 16.3903 49.6738 16.0309 49.0957 16.1872C46.4395 16.8434 44.5957 17.4372 43.3145 17.9841C40.3613 19.2341 40.3926 20.1559 40.3926 20.6247C40.4082 21.1559 40.5176 22.2028 46.877 24.5153C46.877 24.7028 46.6738 25.4216 46.5488 25.6559C46.252 26.1872 46.5645 26.7028 46.877 27.2184C46.9863 27.3903 47.2363 27.6091 47.5332 27.6091C47.9238 27.6091 48.4082 27.1091 48.4707 26.7028C48.7051 25.2184 48.6738 24.3434 48.5957 24.1716C48.5957 24.1559 48.5801 24.1403 48.5801 24.1247C48.5488 24.0778 48.5332 24.0309 48.502 23.9841C48.4863 23.9528 48.4551 23.9372 48.4395 23.9059C48.4082 23.8747 48.3926 23.8434 48.3613 23.8278C48.3145 23.7809 48.2676 23.7497 48.2207 23.7184C48.2051 23.7184 48.2051 23.7028 48.1895 23.7028C48.1113 23.6559 48.0332 23.6091 47.9551 23.5778C45.7988 22.6872 43.7832 21.2497 42.8926 20.6247C43.2051 20.4528 43.6426 20.2341 44.1895 20.0309C45.5488 19.4841 47.5488 18.8434 49.5957 18.3434C50.2051 18.1716 50.5645 17.5778 50.4238 16.9841Z" fill="#F6AD86"/>
<path d="M61.0175 21.2495L59.5331 21.5307L58.3769 21.7495L57.3925 21.937C56.1268 19.4526 55.83 18.8901 55.7831 18.0464C55.7362 17.0932 55.9862 16.6089 56.6112 16.2651C57.2362 15.9214 58.0175 16.1401 58.3612 16.7651C58.3925 16.812 59.7362 18.7339 61.0175 21.2495Z" fill="#E8E8E8"/>
<path d="M65.0491 52.1558C64.9085 53.0621 64.4241 54.0465 63.7366 55.2496C62.5803 57.2496 60.8147 59.484 59.221 61.3433C58.1116 62.6402 57.0959 63.7652 56.4553 64.5308C56.1741 64.859 55.9553 65.1246 55.8303 65.2965L54.5178 63.609C55.0022 62.9215 55.4553 61.9996 56.0178 61.1402C56.0335 61.1246 56.0491 61.0933 56.0647 61.0777C57.1272 59.4683 58.2678 57.6558 59.1741 55.9996C59.2053 55.9371 59.2366 55.8902 59.2678 55.8277C60.2366 54.0777 60.9553 52.5308 61.096 51.6246C61.346 50.0152 58.9241 44.984 56.5334 40.5465C56.2678 40.0308 55.9866 39.5308 55.721 39.0465C55.6272 38.8746 55.5803 38.7027 55.5647 38.5152C55.5022 37.7027 56.0959 36.7652 56.8303 36.359C57.7209 35.859 58.8772 35.609 59.3772 36.4996C60.3928 38.3433 65.6585 48.2027 65.0491 52.1558Z" fill="#3A63A9"/>
<path d="M59.2205 61.3433C58.1111 62.6401 57.0955 63.7651 56.4548 64.5308C56.3455 63.6245 56.2361 62.6401 56.1267 61.6401C56.1111 61.4526 56.0798 61.2495 56.0642 61.062C57.1267 59.4526 58.2673 57.6401 59.1736 55.9839C59.2361 57.6245 59.2361 59.5464 59.2205 61.3433Z" fill="#2D548D"/>
<path d="M58.9865 52.6558C58.5333 48.9527 55.424 38.9996 54.9396 37.9058C54.5333 36.9683 52.2833 36.7652 51.3458 37.1871C50.4083 37.5933 49.9865 38.6871 50.3927 39.6246C51.6427 42.4683 55.1896 50.0777 55.549 52.7652C55.7521 54.3746 56.0333 57.609 56.5333 60.3746C56.8927 62.2965 57.2521 64.1715 57.5177 65.5308C57.7521 66.7183 57.7521 66.4996 57.7677 66.609L59.9865 66.2652C59.9865 66.2652 59.5177 57.0308 58.9865 52.6558Z" fill="#3A63A9"/>
<path d="M49.6113 18.312C47.5645 18.812 45.5645 19.4526 44.2051 19.9995L43.2988 17.9682C44.5801 17.437 46.4238 16.8276 49.0801 16.1714C49.6738 16.0307 50.2676 16.3901 50.4082 16.9682C50.5645 17.5776 50.2051 18.1714 49.6113 18.312Z" fill="#ED8C61"/>
<path d="M49.1116 16.1401C49.8147 16.0307 50.3303 16.3745 50.5178 17.062C50.7053 17.7495 50.2366 18.2807 49.6116 18.6401C48.8616 19.0776 48.5959 19.1714 45.4241 20.2651L43.6584 17.8276C47.7209 16.2495 47.9241 16.312 49.1116 16.1401Z" fill="#E8E8E8"/>
<path d="M54.3927 16.0153C54.3302 16.0153 54.2677 16.0153 54.2209 16.0153C53.2677 16.0153 52.3927 15.7028 51.7052 15.1559C51.674 14.2809 51.7677 13.5309 51.8146 13.2809C51.924 12.5778 52.5802 12.0778 53.299 12.1872C54.0021 12.2965 54.5021 12.9528 54.3927 13.6715C54.3302 14.0465 54.3146 14.484 54.3146 14.8903C54.2834 15.2965 54.3146 15.7028 54.3927 16.0153Z" fill="#ED8C61"/>
<path d="M58.0644 11.3902C57.5488 13.7808 56.2206 15.5308 53.9238 15.5308C51.6425 15.5308 50.205 13.7965 49.7831 11.3902C49.4081 9.14022 51.6425 6.93709 53.9238 6.93709C56.2363 6.92147 58.5488 9.15584 58.0644 11.3902Z" fill="#F6AD86"/>
<path d="M58.3771 66.6245L58.3615 66.562C57.7365 62.687 56.7833 56.8433 56.3146 53.1558C55.9708 50.4683 52.6427 42.4995 51.3927 39.6558C51.3771 39.6401 51.3771 39.6089 51.3771 39.5933C51.3771 39.5776 51.3771 39.5776 51.3615 39.562C51.1583 39.0151 50.549 36.9839 51.1271 33.7808L51.3146 33.812C50.7365 36.9683 51.3458 38.9526 51.5333 39.4995C51.5333 39.5151 51.549 39.5308 51.549 39.5464C51.549 39.562 51.549 39.5776 51.5646 39.5933C52.8146 42.437 56.1427 50.437 56.4865 53.1401C56.9708 56.812 57.9083 62.6714 58.5333 66.5464L58.549 66.6089L58.3771 66.6245Z" fill="#658BC1"/>
<path d="M55.4082 16.1245C55.4082 16.687 55.1895 17.6245 53.7207 17.6245C52.6582 17.6245 51.3145 17.1714 50.8145 16.312L50.7051 16.1245H55.4082Z" fill="#C8D6DB"/>
<path d="M51.1423 16.1245C51.533 16.812 52.7048 17.2495 53.7205 17.2495C54.7361 17.2495 55.033 16.7495 55.033 16.1245H51.1423Z" fill="#F6AD86"/>
<path d="M56.7051 27.6714C56.7051 27.6558 56.7676 27.0308 56.1113 26.1245L56.7207 25.7651C57.4863 26.9058 57.4082 27.7183 57.4082 27.7651L56.7051 27.6714Z" fill="#82AACE"/>
<path d="M56.2363 25.7808C56.5801 25.6246 57.0332 25.7027 57.2676 25.9527C57.4863 26.2027 57.3926 26.5464 57.0332 26.7027C56.6894 26.8589 56.2363 26.7808 56.0019 26.5308C55.7832 26.2652 55.8769 25.9371 56.2363 25.7808Z" fill="#4E7DB0"/>
<path d="M57.971 8.32772C56.721 6.3121 53.6428 6.15585 53.0491 6.1871C52.7366 6.20272 52.0491 6.39022 51.7522 6.85897C51.7366 6.53085 51.7522 6.23397 51.7522 6.23397C51.4866 6.5621 51.4397 6.84335 51.4866 7.0621C51.2991 6.8121 51.1741 6.54647 51.1741 6.54647C51.1272 6.89022 51.221 7.09335 51.3616 7.20272C50.5178 7.40585 49.4397 8.59335 49.8147 11.0308C49.971 12.0933 52.3772 11.2808 53.0491 10.2183C53.5022 10.9527 54.4085 11.109 54.4085 11.109C54.096 10.7965 53.8147 10.3277 53.596 9.85897C54.8772 10.6402 56.5803 11.484 56.7835 11.9996C56.7835 11.9996 57.1585 11.1715 56.8772 10.6402C56.8772 10.6402 57.8928 10.8902 58.0178 11.9058C58.0022 11.8746 59.2991 10.484 57.971 8.32772Z" fill="#424344"/>
<path d="M54.9786 33.7758L54.7935 33.8057L55.8053 40.0682L55.9904 40.0383L54.9786 33.7758Z" fill="#658BC1"/>
<path d="M55.7048 38.8745L55.6736 38.687C55.6736 38.687 56.0642 38.6245 56.2673 38.3276C56.3923 38.1558 56.4236 37.937 56.3923 37.687L55.7517 33.7183L55.9392 33.687L56.5798 37.6558C56.6267 37.9683 56.5798 38.2339 56.4236 38.437C56.1736 38.812 55.7205 38.8745 55.7048 38.8745Z" fill="#658BC1"/>
<path d="M49.6583 11.1401C49.4708 11.5464 49.502 11.9839 49.6739 12.3589C49.877 12.7964 50.5177 12.7651 50.7052 12.3276L51.2364 11.1401C51.4395 10.7026 51.0333 10.2182 50.5645 10.3432C50.1739 10.4682 49.8302 10.7495 49.6583 11.1401Z" fill="#F6AD86"/>
<defs>
<linearGradient id="paint0_linear_850_12280" x1="73.378" y1="71.1481" x2="-5.89347" y2="-1.67435" gradientUnits="userSpaceOnUse">
<stop stop-color="#6FC7DA"/>
<stop offset="0.3693" stop-color="#0D71B9"/>
<stop offset="0.7613" stop-color="#9E1460"/>
<stop offset="1" stop-color="#E7267A"/>
</linearGradient>
<linearGradient id="paint1_linear_850_12280" x1="40.0343" y1="27.3102" x2="5.66474" y2="-9.1447" gradientUnits="userSpaceOnUse">
<stop stop-color="#6FC7DA"/>
<stop offset="1" stop-color="#9E1460"/>
</linearGradient>
<linearGradient id="paint2_linear_850_12280" x1="23.682" y1="61.1022" x2="4.12817" y2="58.9634" gradientUnits="userSpaceOnUse">
<stop stop-color="#6FC7DA"/>
<stop offset="0.6927" stop-color="#9E1460"/>
<stop offset="1" stop-color="#E7267A"/>
</linearGradient>
</defs>
</svg>
