<svg width="78" height="79" viewBox="0 0 78 79" fill="none" xmlns="http://www.w3.org/2000/svg">
<path d="M28.4553 14.8902C26.8928 15.5464 20.8459 18.062 17.4709 24.5777C16.7521 25.9683 13.3771 32.4839 15.8615 38.2339C19.1584 45.8589 29.1896 43.9995 33.799 51.1714C37.7521 57.3433 29.549 63.4058 33.0803 70.7495C34.924 74.5777 39.174 77.7808 43.0959 78.0777C55.3615 78.9995 77.3928 52.5777 68.4396 31.8433C61.9084 16.7808 41.0959 9.62455 28.4553 14.8902Z" fill="url(#paint0_linear_812_18216)"/>
<path d="M53.455 26.7339L30.8769 18.3589C30.1894 18.1089 29.4394 18.4527 29.1894 19.1402L13.9394 60.187C13.6894 60.8745 14.0331 61.6245 14.7206 61.8745L37.2987 70.2495C37.9862 70.4995 38.7362 70.1558 38.9862 69.4683L54.2362 28.4058C54.4862 27.7339 54.1425 26.9839 53.455 26.7339Z" fill="#2D548D"/>
<path opacity="0.09" d="M39.9239 47.7652C39.3614 47.7652 38.7833 47.7496 38.1895 47.7183C29.4239 47.2339 22.2676 43.3277 19.0489 37.2808C13.9083 27.6246 18.9551 14.1714 26.6895 9.93707C30.5957 7.78082 33.9864 7.84332 36.1426 8.28082C39.8301 9.01519 42.5489 10.7183 43.7989 13.0621C45.1426 15.5777 44.4239 17.9371 43.6583 20.4214C42.9708 22.6558 42.2676 24.9527 43.1114 27.4371C43.8614 29.6558 45.8145 30.3433 47.8926 31.0777C50.002 31.8277 52.1895 32.5933 53.3614 35.0152C54.5958 37.5777 54.4395 41.0777 53.0176 43.1871C51.0801 45.9996 45.9551 47.7652 39.9239 47.7652ZM33.7051 8.21832C31.7833 8.21832 29.3926 8.65582 26.7832 10.0933C19.127 14.2964 14.127 27.6402 19.2208 37.2027C22.4083 43.2027 29.5176 47.0621 38.2208 47.5464C44.9083 47.9214 50.7989 46.1246 52.877 43.0933C54.2676 41.0464 54.4239 37.6089 53.2051 35.1089C52.0645 32.7496 49.9239 31.9996 47.8457 31.2652C45.7364 30.5152 43.7364 29.8121 42.9551 27.5152C42.0958 24.9683 42.8145 22.6402 43.502 20.3746C44.252 17.9214 44.9708 15.5933 43.6583 13.1402C42.4395 10.8433 39.752 9.17144 36.127 8.45269C35.4239 8.31207 34.6114 8.21832 33.7051 8.21832Z" fill="#AAAAD5"/>
<path opacity="0.2" d="M47.9865 24.7026L45.4865 26.3745L23.6583 41.0308L20.2052 43.3589L24.9552 30.5308L28.424 28.2026L36.2521 22.937L38.7521 21.2651L47.9865 24.7026Z" fill="#EEEDF3"/>
<path opacity="0.2" d="M52.9552 26.5464L50.4552 28.2183L21.0958 47.937L17.6271 50.2495L19.3146 45.7339L22.7677 43.4214V43.4058L47.2052 27.0151L49.7052 25.3276L52.9552 26.5464Z" fill="#EEEDF3"/>
<path d="M53.4549 26.7339L52.9549 26.5464L49.7049 25.3433L47.9862 24.7027L38.7518 21.2808L30.8768 18.3589C30.2049 18.1089 29.4393 18.4527 29.1893 19.1402L24.9549 30.5464L20.1893 43.3745L19.2987 45.7652L17.6268 50.2808L13.9393 60.2183C13.8924 60.3433 13.8768 60.4683 13.8612 60.5933C13.8143 61.1558 14.1581 61.7027 14.7206 61.9058L18.9081 63.4683L22.0643 64.6402L30.4081 67.7339L33.4549 68.8589L37.2987 70.2808C37.9706 70.5308 38.7362 70.187 38.9862 69.5152L53.9549 29.2027L54.2362 28.4527C54.4862 27.7339 54.1424 26.9839 53.4549 26.7339ZM51.3143 29.2808L51.0018 30.1402L38.1112 64.8745C37.9706 65.2339 37.5643 65.437 37.1893 65.2964L34.3612 64.2495L30.9393 62.9839L23.8768 60.3589L20.6424 59.1558L18.0643 58.2027C17.7831 58.0933 17.6112 57.8433 17.6112 57.562C17.6112 57.4683 17.6112 57.3745 17.6581 57.2808L21.1268 47.9527L22.7987 43.437L23.6893 41.0464L28.4549 28.2183L30.8768 21.7027C31.0174 21.3433 31.4237 21.1402 31.7831 21.2808L36.2831 22.9527L45.5174 26.3745L47.2362 27.0152L50.4862 28.2183L50.9081 28.3745C51.2674 28.5152 51.4549 28.9214 51.3143 29.2808Z" fill="#EEEDF3"/>
<path d="M25.3768 64.3745C24.7362 64.1401 24.4081 63.4214 24.6424 62.7807C24.8768 62.1401 25.5956 61.812 26.2362 62.0464C26.8768 62.2808 27.2049 62.9995 26.9706 63.6401C26.7206 64.2964 26.0018 64.6089 25.3768 64.3745Z" fill="#C9C7D9"/>
<path opacity="0.1" d="M40.4707 2.51515L8.9551 12.9527C8.18947 13.2027 7.78322 14.0308 8.03322 14.7808L11.0957 23.9995C11.3457 24.7652 12.1738 25.1714 12.9238 24.9214L16.0332 23.8902L17.5488 23.3902C17.9395 23.6402 18.9082 24.2964 19.2988 24.5308C19.6582 24.7339 20.127 24.5777 20.2988 24.2027C20.4863 23.7808 20.877 22.687 21.0332 22.2495L28.6895 19.7027L44.4395 14.4839C45.2051 14.2339 45.6113 13.4058 45.3613 12.6558L42.2988 3.43703C42.0488 2.6714 41.2363 2.26515 40.4707 2.51515Z" fill="#3F3F3F"/>
<path d="M40.4706 0.0776324L6.65808 11.2808C5.84558 11.5464 5.40808 12.437 5.6737 13.2495L8.95495 23.1401C9.22058 23.9526 10.1112 24.3901 10.9237 24.1245L14.2518 23.0151L15.8768 22.4839C16.2831 22.7651 17.33 23.4526 17.7518 23.7026C18.1268 23.9214 18.6425 23.7495 18.83 23.3433C19.0175 22.8901 19.455 21.7026 19.6112 21.2495L27.83 18.5308L44.7362 12.9214C45.5487 12.6558 45.9862 11.7651 45.7206 10.9526L42.4393 1.06201C42.1737 0.249507 41.2987 -0.187993 40.4706 0.0776324Z" fill="url(#paint1_linear_812_18216)"/>
<path d="M15.2205 15.9213C15.4548 15.5151 15.5173 15.0151 15.3611 14.5307L15.0955 13.7338C14.7986 12.8432 13.8611 12.2963 12.9548 12.562C12.0173 12.8432 11.5173 13.8276 11.8142 14.7495L12.0955 15.6245C12.2517 16.1088 12.6111 16.4682 13.033 16.6557C12.0642 17.3901 11.5017 18.562 11.5798 19.7963C11.6111 20.2807 12.0955 20.5776 12.5486 20.437L17.8298 18.687C18.283 18.5307 18.4861 17.9995 18.2361 17.5932C17.5798 16.5307 16.4392 15.9213 15.2205 15.9213Z" fill="white"/>
<path d="M27.9393 7.57762L21.205 9.812C20.6581 9.9995 20.3612 10.5932 20.5331 11.1401L21.6268 14.4526C21.8143 14.9995 22.4081 15.2964 22.955 15.1245L23.6112 14.9057C23.6112 14.9057 24.8612 15.7495 25.2831 15.9995C25.5956 16.1714 26.0175 16.0464 26.1581 15.7026C26.3612 15.2495 26.8612 13.8276 26.8612 13.8276L29.6893 12.8901C30.2362 12.7026 30.5331 12.1089 30.3612 11.562L29.2675 8.24949C29.08 7.68699 28.4862 7.39012 27.9393 7.57762Z" fill="white"/>
<path d="M22.3768 11.3432C22.158 11.3901 21.9236 11.2807 21.8611 11.0619C21.783 10.8276 21.908 10.5776 22.1424 10.5151L27.6111 8.70257C27.8299 8.62445 28.0955 8.74945 28.158 8.98382C28.2361 9.2182 28.1111 9.4682 27.8768 9.5307L22.408 11.3432C22.3924 11.3432 22.3924 11.3432 22.3768 11.3432Z" fill="#E2E1E1"/>
<path d="M22.8455 12.7807C22.6268 12.8276 22.3924 12.7182 22.3299 12.4994C22.2518 12.2651 22.3768 12.0151 22.6111 11.9526L28.0799 10.1401C28.2986 10.0619 28.5643 10.1869 28.6268 10.4213C28.7049 10.6557 28.5799 10.9057 28.3455 10.9682L22.8768 12.7807C22.8768 12.7651 22.8611 12.7807 22.8455 12.7807Z" fill="#E2E1E1"/>
<path d="M23.3301 14.2026C23.1114 14.2494 22.877 14.1401 22.8145 13.9213C22.7364 13.6869 22.8614 13.4369 23.0958 13.3744L25.5645 12.5619C25.7833 12.4838 26.0333 12.6088 26.1114 12.8432C26.1895 13.0776 26.0645 13.3276 25.8301 13.3901L23.3614 14.2026C23.3458 14.2026 23.3458 14.2026 23.3301 14.2026Z" fill="#E2E1E1"/>
<path d="M41.9707 9.14007C41.752 8.4682 41.3145 7.9057 40.7832 7.5307L40.5489 6.81195C40.1426 5.60882 38.9551 4.9057 37.7364 5.07757L37.6739 4.87445C37.5957 4.64007 37.3457 4.51507 37.1114 4.5932C36.877 4.67132 36.752 4.92132 36.8301 5.1557L36.8926 5.35882C35.8145 5.93695 35.2832 7.2182 35.6739 8.42132L35.9082 9.14007C35.7051 9.76507 35.6895 10.4682 35.9082 11.1401L36.0176 11.4526C36.0645 11.6088 36.2364 11.7026 36.3926 11.6401L37.5957 11.2338C37.6114 11.3276 37.6582 11.4213 37.7676 11.4526C38.2676 11.6244 38.8301 11.6244 39.377 11.4526C39.9239 11.2807 40.3614 10.9369 40.6739 10.4994C40.7364 10.4057 40.7364 10.2963 40.6895 10.2182L41.8926 9.81195C42.0489 9.76507 42.1426 9.5932 42.0801 9.43695L41.9707 9.14007Z" fill="white"/>
<path d="M36.8457 11.1244C37.0801 11.8276 36.6895 12.6088 35.9864 12.8432C35.2832 13.0776 34.502 12.6869 34.2676 11.9838C34.0332 11.2807 34.4239 10.4994 35.127 10.2651C35.8457 10.0307 36.6114 10.4057 36.8457 11.1244Z" fill="#E83C3B"/>
<path opacity="0.1" d="M74.4706 29.062L65.8299 28.0308C65.4549 27.9839 65.1268 28.2495 65.0799 28.6245L64.0487 37.2651C64.0018 37.6401 64.2674 37.9683 64.6424 38.0151L73.2831 39.0464C73.6581 39.0933 73.9862 38.8276 74.0331 38.4526L75.0643 29.812C75.1112 29.4526 74.8456 29.1089 74.4706 29.062Z" fill="#3F3F3F"/>
<path d="M75.486 37.8433L65.3923 36.6402C65.2204 36.6246 65.0954 36.4683 65.1266 36.2964L66.3298 26.2027C66.3454 26.0308 66.5016 25.9058 66.6735 25.9371L76.7673 27.1402C76.9391 27.1558 77.0641 27.3121 77.0329 27.4839L75.8298 37.5777C75.8141 37.7339 75.6579 37.8589 75.486 37.8433Z" fill="#F8AA09"/>
<path d="M66.2048 35.5308L67.2048 27.1714C67.2205 27.062 67.3142 26.9995 67.408 26.9995L75.7673 27.9995C75.8767 28.0151 75.9392 28.1089 75.9392 28.2026L74.9392 36.562C74.9236 36.6714 74.8298 36.7339 74.7361 36.7339L66.3767 35.7339C66.2673 35.7339 66.2048 35.6401 66.2048 35.5308Z" fill="#FBBA38"/>
<path d="M71.2829 32.5933L70.3141 33.3589C70.1422 33.4996 69.8766 33.4683 69.736 33.2964C69.5954 33.1246 69.3454 33.0933 69.1579 33.2339L67.736 34.3589C67.4547 34.5777 67.5797 35.0464 67.9391 35.0933L68.111 35.1089L71.4704 35.5152L73.361 35.7339C73.7204 35.7808 73.9547 35.3589 73.736 35.0777L71.861 32.6558C71.7204 32.4839 71.4547 32.4527 71.2829 32.5933Z" fill="#EE9F05"/>
<path d="M69.5483 30.9684C69.5014 31.359 69.1421 31.6402 68.7514 31.5934C68.3608 31.5465 68.0796 31.1871 68.1264 30.7965C68.1733 30.4059 68.5327 30.1246 68.9233 30.1715C69.3139 30.2184 69.5952 30.5777 69.5483 30.9684Z" fill="#EE9F05"/>
<path opacity="0.1" d="M19.8458 53.5776C19.5177 52.5307 18.4083 51.9526 17.3614 52.2807L4.61142 56.312C3.56454 56.6401 2.98642 57.7495 3.31454 58.7964L5.93954 67.0932C6.26767 68.1401 7.37704 68.7182 8.42392 68.3901L9.67392 67.9995C9.67392 67.9995 12.002 69.6089 12.8145 70.0932C13.3927 70.437 14.1895 70.187 14.4708 69.562C14.8614 68.7026 15.8302 66.0464 15.8302 66.0464L21.1739 64.3589C22.2208 64.0307 22.7989 62.9214 22.4708 61.8745L19.8458 53.5776Z" fill="#3F3F3F"/>
<path d="M15.1582 50.3901L1.48635 54.7183C0.361346 55.0776 -0.248029 56.2651 0.0957209 57.3901L2.90822 66.2964C3.2676 67.4214 4.4551 68.0308 5.5801 67.687L6.90822 67.2651C6.90822 67.2651 9.40822 68.9995 10.2676 69.5151C10.8926 69.8901 11.752 69.6089 12.0488 68.9526C12.4707 68.0308 13.502 65.1714 13.502 65.1714L19.2363 63.3589C20.3613 62.9995 20.9707 61.812 20.627 60.687L17.8145 51.7808C17.4863 50.6558 16.2832 50.0308 15.1582 50.3901Z" fill="url(#paint2_linear_812_18216)"/>
<path d="M15.2051 54.9996L4.1114 58.5152C3.75202 58.6246 3.3614 58.4371 3.25202 58.0621C3.14265 57.7027 3.34577 57.3121 3.70515 57.2027L14.7989 53.6871C15.1583 53.5777 15.5489 53.7652 15.6583 54.1402C15.7676 54.4996 15.5645 54.8902 15.2051 54.9996Z" fill="#EDB7D5"/>
<path d="M16.1893 58.1402L5.09553 61.6558C4.73615 61.7652 4.34553 61.5777 4.23615 61.2027C4.12678 60.8433 4.3299 60.4527 4.68928 60.3433L15.783 56.8277C16.1424 56.7183 16.533 56.9058 16.6424 57.2808C16.7518 57.6246 16.5486 58.0152 16.1893 58.1402Z" fill="#EDB7D5"/>
<path d="M11.0956 63.187L6.09565 64.7651C5.73627 64.8745 5.34565 64.6713 5.23627 64.312C5.1269 63.9526 5.33002 63.562 5.6894 63.4526L10.6894 61.8745C11.0488 61.7651 11.4394 61.9682 11.5488 62.3276C11.6581 62.687 11.455 63.0776 11.0956 63.187Z" fill="#EDB7D5"/>
<path opacity="0.1" d="M43.1114 34.8745C42.9239 34.0776 41.8614 33.9057 41.4239 34.6089L39.6739 37.437L38.6895 33.3276C38.4864 32.4995 37.6583 31.9838 36.8302 32.187L25.5333 34.8745C24.7052 35.0776 24.1895 35.9057 24.3927 36.7339L27.0802 48.0307C27.2833 48.8589 28.1114 49.3745 28.9395 49.1714L40.2364 46.4839C41.0645 46.2807 41.5802 45.4526 41.377 44.6245L40.3927 40.5151L43.2208 42.2651C43.9239 42.7026 44.7989 42.062 44.5958 41.2651L43.1114 34.8745Z" fill="#3F3F3F"/>
<path d="M42.7678 31.5307L40.8928 34.5776L39.8459 30.1714C39.6272 29.2807 38.7366 28.7339 37.8459 28.937L25.7209 31.8276C24.8303 32.0464 24.2834 32.937 24.4865 33.8276L27.3772 45.9526C27.5959 46.8432 28.4865 47.3901 29.3772 47.187L41.5022 44.2964C42.3928 44.0776 42.9397 43.187 42.7366 42.2964L41.6897 37.8901L44.7366 39.7651C45.4866 40.2339 46.4241 39.5464 46.2209 38.687L44.5803 31.8276C44.3772 30.9682 43.2366 30.7807 42.7678 31.5307Z" fill="#E83B5B"/>
<path d="M31.4551 34.7964L35.8926 37.5151L33.1582 41.9527" fill="white"/>
<path d="M51.131 52.3747L32.6925 55.3118L34.3515 65.7268L52.79 62.7897L51.131 52.3747Z" fill="#E83C3B"/>
<path d="M42.7366 59.062L51.1272 52.3901L32.6897 55.3276L42.7366 59.062Z" fill="#EE7375"/>
<path d="M54.877 70.2651H65.4238C65.7363 70.2651 66.002 69.9995 66.002 69.687C66.002 69.3745 65.7363 69.1089 65.4238 69.1089H54.877C54.5645 69.1089 54.2988 69.3745 54.2988 69.687C54.2988 70.0151 54.5488 70.2651 54.877 70.2651Z" fill="#E2E2E1"/>
<path d="M58.361 67.812L57.861 64.7651L59.236 64.3433L59.4547 67.5933L58.361 67.812Z" fill="#D7DDE9"/>
<path d="M59.5017 67.2651C59.5955 67.2807 59.6736 67.312 59.7517 67.3745C60.2361 67.7807 61.7204 68.4995 62.4704 68.6089C63.2829 68.7339 63.3298 69.1245 62.1736 69.1245C61.0329 69.1245 60.1892 69.0151 59.6892 69.0308C59.1736 69.0464 59.3142 69.1245 58.0642 69.1245C57.0955 69.1245 57.408 67.8901 57.7517 67.3276C57.8611 67.1557 58.0017 67.062 58.2048 67.0776L59.5017 67.2651Z" fill="#ED9558"/>
<path d="M53.9392 64.9683L55.8455 62.5464L57.0798 63.2808L54.8455 65.6245L53.9392 64.9683Z" fill="#D7DDE9"/>
<path d="M55.1267 65.437C55.1736 65.5152 55.2205 65.5933 55.2205 65.687C55.2517 66.312 55.7361 67.937 56.3142 68.4527C56.8924 68.9839 56.5174 69.1089 55.5799 68.6714C54.5486 68.187 54.3142 67.1402 53.9549 66.7808C53.5955 66.4214 53.6268 66.562 52.783 65.6402C52.1268 64.937 53.2361 64.3277 53.8924 64.187C54.0955 64.1402 54.2518 64.187 54.3768 64.3589L55.1267 65.437Z" fill="#ED9558"/>
<path d="M53.0801 13.4681C53.0801 13.4681 52.7051 15.9681 53.4238 17.1244C54.1426 18.2806 54.252 18.4525 54.252 18.4525" fill="#ED8C61"/>
<path d="M54.924 19.5619C54.7209 19.6869 54.4865 19.7494 54.2677 19.7494C53.8302 19.7494 53.3927 19.5307 53.1583 19.1088C53.1427 19.0932 53.0177 18.8744 52.3458 17.8119C51.8771 17.0619 51.7208 16.0463 51.7052 15.1557C51.674 14.2807 51.7677 13.5307 51.8146 13.2807C51.924 12.5775 52.5802 12.0775 53.299 12.1869C54.0021 12.2963 54.5021 12.9525 54.3927 13.6713C54.3302 14.0463 54.3146 14.4838 54.3146 14.89C54.3146 15.3119 54.3458 15.7182 54.4083 16.015C54.4396 16.1869 54.4865 16.3432 54.549 16.4369C55.2834 17.6088 55.3927 17.7963 55.3927 17.7963C55.7521 18.4057 55.549 19.2025 54.924 19.5619Z" fill="#F6AD86"/>
<path d="M50.1268 33.8745C50.3925 30.1401 49.1425 20.8745 48.5018 17.187C48.4081 16.6245 48.83 16.1089 49.4081 16.1089H57.08C57.4862 16.1089 57.8612 16.3901 57.9706 16.7808C58.8456 20.1245 59.4081 33.8589 59.4081 33.8589H50.1268V33.8745Z" fill="#E8E8E8"/>
<path d="M62.7987 26.1088C62.6737 25.4057 61.8143 23.6088 60.8612 21.7338C59.8456 19.7494 58.7049 17.6557 58.1737 16.7182C57.8768 16.1869 57.2049 15.9994 56.6737 16.2807C56.1424 16.5775 55.9549 17.2494 56.2362 17.7807C57.0487 19.2494 57.8768 20.7963 58.6112 22.1869C59.4393 23.7807 60.2362 24.7494 60.5643 25.5307C59.9706 26.0463 58.4862 26.0932 57.3143 26.0151C56.9862 25.9838 55.7362 25.8901 54.9081 26.6557C54.58 26.9526 54.205 27.4994 54.2362 28.3588C54.2675 28.9526 54.3456 29.1869 54.8768 29.4526C55.0956 29.5619 55.3768 29.5776 55.6112 29.5619C56.2206 29.4838 56.2675 29.1557 56.2675 28.4526C56.2675 27.9526 56.5331 27.4526 56.5331 27.4526C56.5331 27.4526 58.3143 27.8901 59.7987 28.0776C61.2831 28.2651 61.8924 27.9682 62.4393 27.3588C62.7518 26.9994 62.8768 26.5463 62.7987 26.1088Z" fill="#F6AD86"/>
<path d="M50.5333 39.9058C50.5333 39.9058 49.4083 37.8433 50.127 33.8745H59.3927C59.3927 33.8745 59.5177 36.8901 59.3145 39.9058H50.5333Z" fill="#3A63A9"/>
<path d="M60.8454 21.7339L59.7673 21.9526L58.6111 22.187C57.8923 20.7964 57.0486 19.2339 56.2361 17.7808C55.9392 17.2495 56.1423 16.5776 56.6736 16.2808C57.2048 15.9839 57.8767 16.187 58.1736 16.7183C58.6892 17.6558 59.8298 19.7495 60.8454 21.7339Z" fill="#ED8C61"/>
<path d="M50.4237 16.9838C50.2831 16.3901 49.6737 16.0307 49.0956 16.1869C46.4393 16.8432 44.5956 17.4369 43.3143 17.9838C40.3612 19.2338 40.3925 20.1557 40.3925 20.6244C40.4081 21.1557 40.5175 22.2026 46.8768 24.5151C46.8768 24.7026 46.6737 25.4213 46.5487 25.6557C46.2518 26.1869 46.5643 26.7026 46.8768 27.2182C46.9862 27.3901 47.2362 27.6088 47.5331 27.6088C47.9237 27.6088 48.4081 27.1088 48.4706 26.7026C48.705 25.2182 48.6737 24.3432 48.5956 24.1713C48.5956 24.1557 48.58 24.1401 48.58 24.1244C48.5487 24.0776 48.5331 24.0307 48.5018 23.9838C48.4862 23.9526 48.455 23.9369 48.4393 23.9057C48.4081 23.8744 48.3925 23.8432 48.3612 23.8276C48.3143 23.7807 48.2675 23.7494 48.2206 23.7182C48.205 23.7182 48.205 23.7026 48.1893 23.7026C48.1112 23.6557 48.0331 23.6088 47.955 23.5776C45.7987 22.6869 43.7831 21.2494 42.8925 20.6244C43.205 20.4526 43.6425 20.2338 44.1893 20.0307C45.5487 19.4838 47.5487 18.8432 49.5956 18.3432C50.205 18.1713 50.5643 17.5776 50.4237 16.9838Z" fill="#F6AD86"/>
<path d="M61.0175 21.2495L59.5331 21.5307L58.3769 21.7495L57.3925 21.937C56.1268 19.4526 55.83 18.8901 55.7831 18.0464C55.7362 17.0932 55.9862 16.6089 56.6112 16.2651C57.2362 15.9214 58.0175 16.1401 58.3612 16.7651C58.3925 16.812 59.7362 18.7339 61.0175 21.2495Z" fill="#E8E8E8"/>
<path d="M65.0488 52.1557C64.9082 53.062 64.4238 54.0463 63.7363 55.2495C62.5801 57.2495 60.8145 59.4838 59.2207 61.3432C58.1113 62.6401 57.0957 63.7651 56.4551 64.5307C56.1738 64.8588 55.9551 65.1245 55.8301 65.2963L54.5176 63.6088C55.002 62.9213 55.4551 61.9995 56.0176 61.1401C56.0332 61.1245 56.0488 61.0932 56.0645 61.0776C57.127 59.4682 58.2676 57.6557 59.1738 55.9995C59.2051 55.937 59.2363 55.8901 59.2676 55.8276C60.2363 54.0776 60.9551 52.5307 61.0957 51.6245C61.3457 50.0151 58.9238 44.9838 56.5332 40.5463C56.2676 40.0307 55.9863 39.5307 55.7207 39.0463C55.627 38.8745 55.5801 38.7026 55.5645 38.5151C55.502 37.7026 56.0957 36.7651 56.8301 36.3588C57.7207 35.8588 58.877 35.6088 59.377 36.4995C60.3926 38.3432 65.6582 48.2026 65.0488 52.1557Z" fill="#3A63A9"/>
<path d="M59.2205 61.3433C58.1111 62.6401 57.0955 63.7651 56.4548 64.5308C56.3455 63.6245 56.2361 62.6401 56.1267 61.6401C56.1111 61.4526 56.0798 61.2495 56.0642 61.062C57.1267 59.4526 58.2673 57.6401 59.1736 55.9839C59.2361 57.6245 59.2361 59.5464 59.2205 61.3433Z" fill="#2D548D"/>
<path d="M58.9862 52.6557C58.5331 48.9526 55.4237 38.9995 54.9394 37.9057C54.5331 36.9682 52.2831 36.7651 51.3456 37.187C50.4081 37.5932 49.9862 38.687 50.3925 39.6245C51.6425 42.4682 55.1894 50.0776 55.5487 52.7651C55.7519 54.3745 56.0331 57.6088 56.5331 60.3745C56.8925 62.2963 57.2519 64.1713 57.5175 65.5307C57.7519 66.7182 57.7519 66.4995 57.7675 66.6088L59.9862 66.2651C59.9862 66.2651 59.5175 57.0307 58.9862 52.6557Z" fill="#3A63A9"/>
<path d="M49.6112 18.312C47.5643 18.812 45.5643 19.4526 44.205 19.9995L43.2987 17.9682C44.58 17.437 46.4237 16.8276 49.08 16.1714C49.6737 16.0307 50.2675 16.3901 50.4081 16.9682C50.5643 17.5776 50.205 18.1714 49.6112 18.312Z" fill="#ED8C61"/>
<path d="M49.1113 16.1401C49.8145 16.0307 50.3301 16.3745 50.5176 17.062C50.7051 17.7495 50.2363 18.2807 49.6113 18.6401C48.8613 19.0776 48.5957 19.1714 45.4238 20.2651L43.6582 17.8276C47.7207 16.2495 47.9238 16.312 49.1113 16.1401Z" fill="#E8E8E8"/>
<path d="M54.3927 16.015C54.3302 16.015 54.2677 16.015 54.2209 16.015C53.2677 16.015 52.3927 15.7025 51.7052 15.1557C51.674 14.2807 51.7677 13.5307 51.8146 13.2807C51.924 12.5775 52.5802 12.0775 53.299 12.1869C54.0021 12.2963 54.5021 12.9525 54.3927 13.6713C54.3302 14.0463 54.3146 14.4838 54.3146 14.89C54.2834 15.2963 54.3146 15.7025 54.3927 16.015Z" fill="#ED8C61"/>
<path d="M58.0644 11.3901C57.5488 13.7807 56.2206 15.5307 53.9238 15.5307C51.6425 15.5307 50.205 13.7963 49.7831 11.3901C49.4081 9.1401 51.6425 6.93697 53.9238 6.93697C56.2363 6.92135 58.5488 9.15572 58.0644 11.3901Z" fill="#F6AD86"/>
<path d="M58.377 66.6245L58.3613 66.562C57.7363 62.687 56.7832 56.8433 56.3145 53.1558C55.9707 50.4683 52.6426 42.4995 51.3926 39.6558C51.377 39.6401 51.377 39.6089 51.377 39.5933C51.377 39.5776 51.377 39.5776 51.3613 39.562C51.1582 39.0151 50.5488 36.9839 51.127 33.7808L51.3145 33.812C50.7363 36.9683 51.3457 38.9526 51.5332 39.4995C51.5332 39.5151 51.5488 39.5308 51.5488 39.5464C51.5488 39.562 51.5488 39.5776 51.5645 39.5933C52.8145 42.437 56.1426 50.437 56.4863 53.1401C56.9707 56.812 57.9082 62.6714 58.5332 66.5464L58.5488 66.6089L58.377 66.6245Z" fill="#658BC1"/>
<path d="M55.4082 16.1245C55.4082 16.687 55.1895 17.6245 53.7207 17.6245C52.6582 17.6245 51.3145 17.1714 50.8145 16.312L50.7051 16.1245H55.4082Z" fill="#C8D6DB"/>
<path d="M51.1423 16.1245C51.533 16.812 52.7048 17.2495 53.7205 17.2495C54.7361 17.2495 55.033 16.7495 55.033 16.1245H51.1423Z" fill="#F6AD86"/>
<path d="M56.7049 27.6713C56.7049 27.6556 56.7675 27.0306 56.1112 26.1244L56.7206 25.765C57.4862 26.9056 57.4081 27.7181 57.4081 27.765L56.7049 27.6713Z" fill="#82AACE"/>
<path d="M56.2361 25.7807C56.5798 25.6244 57.033 25.7026 57.2673 25.9526C57.4861 26.2026 57.3923 26.5463 57.033 26.7026C56.6892 26.8588 56.2361 26.7807 56.0017 26.5307C55.783 26.2651 55.8767 25.9369 56.2361 25.7807Z" fill="#4E7DB0"/>
<path d="M57.9707 8.3276C56.7207 6.31197 53.6426 6.15572 53.0489 6.18697C52.7364 6.2026 52.0489 6.3901 51.752 6.85885C51.7364 6.53072 51.752 6.23385 51.752 6.23385C51.4864 6.56197 51.4395 6.84322 51.4864 7.06197C51.2989 6.81197 51.1739 6.54635 51.1739 6.54635C51.127 6.8901 51.2207 7.09322 51.3614 7.2026C50.5176 7.40572 49.4395 8.59322 49.8145 11.0307C49.9707 12.0932 52.377 11.2807 53.0489 10.2182C53.502 10.9526 54.4082 11.1088 54.4082 11.1088C54.0957 10.7963 53.8145 10.3276 53.5957 9.85885C54.877 10.6401 56.5801 11.4838 56.7832 11.9995C56.7832 11.9995 57.1582 11.1713 56.877 10.6401C56.877 10.6401 57.8926 10.8901 58.0176 11.9057C58.002 11.8745 59.2988 10.4838 57.9707 8.3276Z" fill="#424344"/>
<path d="M54.9784 33.7758L54.7933 33.8057L55.8052 40.0682L55.9903 40.0383L54.9784 33.7758Z" fill="#658BC1"/>
<path d="M55.7048 38.8745L55.6736 38.687C55.6736 38.687 56.0642 38.6245 56.2673 38.3276C56.3923 38.1558 56.4236 37.937 56.3923 37.687L55.7517 33.7183L55.9392 33.687L56.5798 37.6558C56.6267 37.9683 56.5798 38.2339 56.4236 38.437C56.1736 38.812 55.7205 38.8745 55.7048 38.8745Z" fill="#658BC1"/>
<path d="M49.6582 11.1401C49.4707 11.5464 49.5019 11.9839 49.6738 12.3589C49.8769 12.7964 50.5175 12.7651 50.705 12.3276L51.2363 11.1401C51.4394 10.7026 51.0332 10.2182 50.5644 10.3432C50.1738 10.4682 49.83 10.7495 49.6582 11.1401Z" fill="#F6AD86"/>
<defs>
<linearGradient id="paint0_linear_812_18216" x1="73.3781" y1="71.1481" x2="-5.89335" y2="-1.67435" gradientUnits="userSpaceOnUse">
<stop stop-color="#6FC7DA"/>
<stop offset="0.3693" stop-color="#0D71B9"/>
<stop offset="0.7613" stop-color="#9E1460"/>
<stop offset="1" stop-color="#E7267A"/>
</linearGradient>
<linearGradient id="paint1_linear_812_18216" x1="40.0341" y1="27.3102" x2="5.66462" y2="-9.1447" gradientUnits="userSpaceOnUse">
<stop stop-color="#6FC7DA"/>
<stop offset="1" stop-color="#9E1460"/>
</linearGradient>
<linearGradient id="paint2_linear_812_18216" x1="23.682" y1="61.1022" x2="4.12817" y2="58.9634" gradientUnits="userSpaceOnUse">
<stop stop-color="#6FC7DA"/>
<stop offset="0.6927" stop-color="#9E1460"/>
<stop offset="1" stop-color="#E7267A"/>
</linearGradient>
</defs>
</svg>
