<svg width="78" height="7" viewBox="0 0 78 7" fill="none" xmlns="http://www.w3.org/2000/svg">
<path opacity="0.1" d="M40.4707 2.51515L8.9551 12.9527C8.18947 13.2027 7.78322 14.0308 8.03322 14.7808L11.0957 23.9995C11.3457 24.7652 12.1738 25.1714 12.9238 24.9214L16.0332 23.8902L17.5488 23.3902C17.9395 23.6402 18.9082 24.2964 19.2988 24.5308C19.6582 24.7339 20.127 24.5777 20.2988 24.2027C20.4863 23.7808 20.877 22.687 21.0332 22.2495L28.6895 19.7027L44.4395 14.4839C45.2051 14.2339 45.6113 13.4058 45.3613 12.6558L42.2988 3.43703C42.0488 2.6714 41.2363 2.26515 40.4707 2.51515Z" fill="#3F3F3F"/>
<path d="M40.4706 0.0776324L6.65808 11.2808C5.84558 11.5464 5.40808 12.437 5.6737 13.2495L8.95495 23.1401C9.22058 23.9526 10.1112 24.3901 10.9237 24.1245L14.2518 23.0151L15.8768 22.4839C16.2831 22.7651 17.33 23.4526 17.7518 23.7026C18.1268 23.9214 18.6425 23.7495 18.83 23.3433C19.0175 22.8901 19.455 21.7026 19.6112 21.2495L27.83 18.5308L44.7362 12.9214C45.5487 12.6558 45.9862 11.7651 45.7206 10.9526L42.4393 1.06201C42.1737 0.249507 41.2987 -0.187993 40.4706 0.0776324Z" fill="url(#paint0_linear_812_18322)"/>
<path d="M41.9707 9.14007C41.752 8.4682 41.3145 7.9057 40.7832 7.5307L40.5489 6.81195C40.1426 5.60882 38.9551 4.9057 37.7364 5.07757L37.6739 4.87445C37.5957 4.64007 37.3457 4.51507 37.1114 4.5932C36.877 4.67132 36.752 4.92132 36.8301 5.1557L36.8926 5.35882C35.8145 5.93695 35.2832 7.2182 35.6739 8.42132L35.9082 9.14007C35.7051 9.76507 35.6895 10.4682 35.9082 11.1401L36.0176 11.4526C36.0645 11.6088 36.2364 11.7026 36.3926 11.6401L37.5957 11.2338C37.6114 11.3276 37.6582 11.4213 37.7676 11.4526C38.2676 11.6244 38.8301 11.6244 39.377 11.4526C39.9239 11.2807 40.3614 10.9369 40.6739 10.4994C40.7364 10.4057 40.7364 10.2963 40.6895 10.2182L41.8926 9.81195C42.0489 9.76507 42.1426 9.5932 42.0801 9.43695L41.9707 9.14007Z" fill="white"/>
<path d="M58.0644 11.3901C57.5488 13.7807 56.2206 15.5307 53.9238 15.5307C51.6425 15.5307 50.205 13.7963 49.7831 11.3901C49.4081 9.1401 51.6425 6.93697 53.9238 6.93697C56.2363 6.92135 58.5488 9.15572 58.0644 11.3901Z" fill="#F6AD86"/>
<path d="M57.9707 8.3276C56.7207 6.31197 53.6426 6.15572 53.0489 6.18697C52.7364 6.2026 52.0489 6.3901 51.752 6.85885C51.7364 6.53072 51.752 6.23385 51.752 6.23385C51.4864 6.56197 51.4395 6.84322 51.4864 7.06197C51.2989 6.81197 51.1739 6.54635 51.1739 6.54635C51.127 6.8901 51.2207 7.09322 51.3614 7.2026C50.5176 7.40572 49.4395 8.59322 49.8145 11.0307C49.9707 12.0932 52.377 11.2807 53.0489 10.2182C53.502 10.9526 54.4082 11.1088 54.4082 11.1088C54.0957 10.7963 53.8145 10.3276 53.5957 9.85885C54.877 10.6401 56.5801 11.4838 56.7832 11.9995C56.7832 11.9995 57.1582 11.1713 56.877 10.6401C56.877 10.6401 57.8926 10.8901 58.0176 11.9057C58.002 11.8745 59.2988 10.4838 57.9707 8.3276Z" fill="#424344"/>
<defs>
<linearGradient id="paint0_linear_812_18322" x1="40.0341" y1="27.3102" x2="5.66462" y2="-9.1447" gradientUnits="userSpaceOnUse">
<stop stop-color="#6FC7DA"/>
<stop offset="1" stop-color="#9E1460"/>
</linearGradient>
</defs>
</svg>
