<svg width="25" height="24" viewBox="0 0 25 24" fill="none" xmlns="http://www.w3.org/2000/svg">
<g clip-path="url(#clip0_2568_15660)">
<path d="M1.5 3.37677V20.6232C1.5 21.9379 2.56176 23 3.87597 23H21.124C22.4382 23 23.5 21.9379 23.5 20.6232V3.37677C23.5 2.06212 22.4382 1 21.124 1H3.87597C2.56176 1 1.5 2.06212 1.5 3.37677Z" fill="url(#paint0_linear_2568_15660)"/>
<path d="M7.80585 7.50138C7.71909 7.79224 7.45011 8 7.12907 8H4.5L5.20282 5.49862C5.28091 5.19945 5.55857 5 5.87961 5H8.5L7.80585 7.50138Z" fill="white"/>
<path d="M19.7978 7.5346C19.7217 7.82738 19.4509 8.02814 19.1464 8.02814H13.7403L10.6984 18.5065C10.6138 18.7992 10.3515 19 10.0385 19H7.5L10.5846 8.01977L11.4052 5H20.5L19.7978 7.5346Z" fill="white"/>
</g>
<defs>
<linearGradient id="paint0_linear_2568_15660" x1="12.5" y1="1" x2="12.5" y2="23" gradientUnits="userSpaceOnUse">
<stop stop-color="#14D8C8"/>
<stop offset="0.578125" stop-color="#06ADB7"/>
<stop offset="1" stop-color="#047980"/>
</linearGradient>
<clipPath id="clip0_2568_15660">
<rect width="24" height="24" fill="white" transform="translate(0.5)"/>
</clipPath>
</defs>
</svg>
