<svg width="24" height="24" viewBox="0 0 24 24" fill="none" xmlns="http://www.w3.org/2000/svg">
<g clip-path="url(#clip0_2568_17355)">
<path d="M20.5293 6.29785C20.2771 6.36946 20.0157 6.4036 19.7535 6.39918L19.7673 6.31811C20.3934 5.82633 20.9217 5.22138 21.3246 4.5347C21.3837 4.33447 21.314 4.26475 21.3132 4.25827L20.0162 4.81113L18.9267 5.30236C18.5153 4.88262 18.0229 4.55076 17.4795 4.32684C16.9361 4.10293 16.3529 3.99161 15.7652 3.99968C13.5011 3.99968 11.6666 5.60312 11.6666 7.58188C11.6642 8.03761 11.7204 8.49176 11.8336 8.9332C11.8336 9.03615 11.8385 8.82863 11.8336 8.9332C10.0866 8.78659 8.3883 8.28249 6.84419 7.45218C3.56273 5.78956 3.35841 4.63848 3.35841 4.63848C2.84285 5.18566 2.57695 6.99821 3.099 8.41926C3.44529 9.10719 3.95496 9.69978 4.58332 10.1451C4.22524 10.1423 3.86972 10.084 3.52946 9.97245C3.26239 9.89671 3.01099 9.77401 2.78695 9.6101C2.4627 10.3907 3.11121 11.7858 4.22016 12.7862C4.76909 13.2078 5.38819 13.5292 6.04894 13.7354L4.2023 13.7873C4.09854 15.5829 7.96688 16.6488 7.96688 16.6488C6.87235 17.533 5.51422 18.0268 4.10745 18.0521C3.39359 18.0517 2.68361 17.9474 1.99982 17.7424C3.89889 19.3911 6.34701 20.2681 8.86103 20.2002C15.7685 19.8379 19.6676 13.9 19.8525 8.06908L19.8622 8.08123C20.2382 7.8445 20.5799 7.55728 20.8779 7.22762C21.3158 6.77799 21.693 6.27301 21.9998 5.72552C21.9998 5.72552 20.9638 6.17544 20.5293 6.29785Z" fill="white"/>
<path d="M21.3141 4.25968C21.3141 4.27103 21.3189 4.37074 21.3141 4.25968V4.25968Z" fill="white"/>
</g>
<defs>
<clipPath id="clip0_2568_17355">
<rect width="24" height="24" fill="white"/>
</clipPath>
</defs>
</svg>
