<svg width="120" height="120" viewBox="0 0 120 120" fill="none" xmlns="http://www.w3.org/2000/svg">
<path d="M6.64655 90.4819L48.4465 114.773C49.3325 115.29 50.7597 115.29 51.6456 114.782L115.159 78.1072C116.045 77.5987 116.045 76.7702 115.159 76.2534L73.3593 51.962C72.4816 51.4534 71.0543 51.4534 70.1684 51.962L6.65476 88.6281C5.76885 89.1449 5.76064 89.9733 6.64655 90.4819Z" fill="#AABAFD"/>
<path d="M56.0414 92.9506C55.5419 93.2389 55.5448 93.7088 56.0411 93.9971L66.345 99.9851C66.8412 100.273 67.6523 100.277 68.1518 99.9883L88.4566 88.2653C88.9561 87.977 88.9532 87.5071 88.4569 87.2188L78.1531 81.2308C77.6568 80.9424 76.8457 80.9392 76.3462 81.2276L56.0414 92.9506Z" fill="#2E4277"/>
<path d="M5.99036 89.5632L5.99856 92.0083C5.99856 92.3364 6.22001 92.6727 6.65477 92.927L48.4548 117.218C49.3407 117.727 50.7679 117.727 51.6538 117.218L115.168 80.5523C115.61 80.298 115.832 79.9618 115.832 79.6172L115.824 77.1803C115.824 77.5166 115.602 77.8529 115.159 78.1072L51.6456 114.782C50.7597 115.29 49.3325 115.29 48.4465 114.773L6.64656 90.4819C6.20364 90.2276 5.99036 89.8995 5.99036 89.5632Z" fill="#798FFE"/>
<path d="M70.0449 3.59438C70.9299 3.08339 71.6497 3.49358 71.6526 4.5106L71.7659 49.1953C71.7687 50.2063 71.0536 51.451 70.1685 51.962L7.57015 88.0998C6.68507 88.6108 5.96524 88.1946 5.96236 87.1836L5.84913 42.4989C5.84625 41.4819 6.5614 40.2432 7.44647 39.7322L70.0449 3.59438Z" fill="#1B2A4F"/>
<path d="M4.16809 41.5249L4.28293 86.2079C4.28293 86.7083 4.46341 87.0692 4.7505 87.2333L6.4294 88.2096C6.14226 88.0456 5.96183 87.6847 5.96183 87.1842L5.84699 42.5013C5.84699 41.4841 6.56063 40.2455 7.44654 39.7288L70.0452 3.59505C70.4882 3.34077 70.8901 3.3162 71.1854 3.48021L69.5065 2.50387C69.2194 2.3398 68.8093 2.36438 68.3664 2.61866L5.76764 38.7606C4.88173 39.2692 4.16809 40.5078 4.16809 41.5249Z" fill="#384E85"/>
<path d="M8.10852 41.9539L8.21746 85.1221L69.5066 49.7403L69.3976 6.57205L8.10852 41.9539Z" fill="#384E85"/>
<path d="M8.10852 41.9539L8.12681 49.1945L69.4159 13.8126L69.3976 6.57205L8.10852 41.9539Z" fill="#AABAFD"/>
<path d="M59.2921 15.1381C59.883 14.7969 60.3633 15.059 60.3653 15.7379C60.3672 16.4168 59.8899 17.2435 59.2991 17.5847C58.7184 17.9199 58.238 17.6461 58.2361 16.9672C58.2341 16.2882 58.7114 15.4733 59.2921 15.1381Z" fill="white"/>
<path d="M62.7049 13.1677C63.2856 12.8325 63.7659 13.0945 63.7679 13.7734C63.7698 14.4523 63.2925 15.279 62.7118 15.6143C62.121 15.9554 61.6406 15.6816 61.6387 15.0027C61.6368 14.3238 62.114 13.5089 62.7049 13.1677Z" fill="white"/>
<path d="M66.1075 11.2032C66.6984 10.8621 67.1787 11.1241 67.1806 11.8031C67.1825 12.482 66.7053 13.3086 66.1144 13.6498C65.5235 13.9909 65.0432 13.7171 65.0413 13.0382C65.0393 12.3593 65.5166 11.5444 66.1075 11.2032Z" fill="white"/>
<path d="M19.465 87.4833L15.4529 89.8148L13.7246 88.817L17.7367 86.4854L19.465 87.4833Z" fill="#384E85"/>
<path d="M62.6344 62.3959L58.6169 64.7307L56.8885 63.7328L60.9061 61.3981L62.6344 62.3959Z" fill="#384E85"/>
<path d="M73.4269 56.124L69.4093 58.4588L67.681 57.461L71.6986 55.1262L73.4269 56.124Z" fill="#384E85"/>
<path d="M66.2262 70.7242L62.2141 73.0558L58.6467 70.9961L62.6588 68.6646L66.2262 70.7242Z" fill="#384E85"/>
<path d="M86.0148 69.6463L81.9973 71.981L78.4243 69.9181L82.4419 67.5834L86.0148 69.6463Z" fill="#384E85"/>
<path d="M91.4138 66.5088L87.3963 68.8435L79.3252 64.1837L83.3428 61.8489L91.4138 66.5088Z" fill="#384E85"/>
<path d="M77.9249 58.721L70.5172 63.0259L66.9442 60.9631L74.3519 56.6581L77.9249 58.721Z" fill="#384E85"/>
<path d="M69.1413 63.8254L65.1238 66.1602L61.5508 64.0973L65.5683 61.7625L69.1413 63.8254Z" fill="#384E85"/>
<path d="M82.4174 61.3148L73.0009 66.7871L69.4335 64.7274L78.85 59.2552L82.4174 61.3148Z" fill="#384E85"/>
<path d="M71.625 67.5866L67.6075 69.9213L64.04 67.8617L68.0576 65.5269L71.625 67.5866Z" fill="#384E85"/>
<path d="M76.1231 70.1836L72.1056 72.5183L68.5326 70.4554L72.5501 68.1207L76.1231 70.1836Z" fill="#384E85"/>
<path d="M63.7425 66.9631L59.725 69.2978L56.152 67.235L60.1695 64.9002L63.7425 66.9631Z" fill="#384E85"/>
<path d="M57.2356 65.5334L53.2236 67.865L51.4952 66.8671L55.5073 64.5356L57.2356 65.5334Z" fill="#384E85"/>
<path d="M51.8423 68.6678L47.8247 71.0025L46.0964 70.0047L50.114 67.6699L51.8423 68.6678Z" fill="#384E85"/>
<path d="M54.5385 82.7273L50.521 85.062L46.948 82.9992L50.9656 80.6644L54.5385 82.7273Z" fill="#384E85"/>
<path d="M46.4431 71.8052L42.4311 74.1368L40.7028 73.1389L44.7148 70.8074L46.4431 71.8052Z" fill="#384E85"/>
<path d="M52.9502 73.2348L48.9381 75.5664L45.3651 73.5035L49.3772 71.172L52.9502 73.2348Z" fill="#384E85"/>
<path d="M41.0497 74.9395L37.0321 77.2743L35.3038 76.2764L39.3214 73.9417L41.0497 74.9395Z" fill="#384E85"/>
<path d="M47.5566 76.3692L43.539 78.7039L39.9661 76.6411L43.9836 74.3063L47.5566 76.3692Z" fill="#384E85"/>
<path d="M55.4337 76.996L51.4217 79.3276L47.8542 77.2679L51.8663 74.9363L55.4337 76.996Z" fill="#384E85"/>
<path d="M35.6563 78.0738L31.6387 80.4086L29.9104 79.4107L33.9279 77.076L35.6563 78.0738Z" fill="#384E85"/>
<path d="M42.1633 79.5035L38.1457 81.8382L34.5728 79.7754L38.5903 77.4406L42.1633 79.5035Z" fill="#384E85"/>
<path d="M59.9318 79.593L55.9198 81.9245L52.3468 79.8616L56.3589 77.5301L59.9318 79.593Z" fill="#384E85"/>
<path d="M50.0403 80.1303L46.0228 82.465L42.4553 80.4054L46.4729 78.0706L50.0403 80.1303Z" fill="#384E85"/>
<path d="M30.2575 81.2114L26.2399 83.5462L24.5116 82.5483L28.5292 80.2136L30.2575 81.2114Z" fill="#384E85"/>
<path d="M36.7643 82.6411L32.7467 84.9758L29.1737 82.913L33.1913 80.5782L36.7643 82.6411Z" fill="#384E85"/>
<path d="M44.6468 83.2646L40.6293 85.5994L37.0619 83.5397L41.0794 81.205L44.6468 83.2646Z" fill="#384E85"/>
<path d="M31.3708 85.7754L27.3532 88.1101L23.7803 86.0472L27.7978 83.7125L31.3708 85.7754Z" fill="#384E85"/>
<path d="M49.145 85.8616L45.1274 88.1964L41.5544 86.1335L45.572 83.7988L49.145 85.8616Z" fill="#384E85"/>
<path d="M39.2481 86.4022L35.2305 88.7369L31.6631 86.6773L35.6806 84.3425L39.2481 86.4022Z" fill="#384E85"/>
<path d="M43.7462 88.9992L39.7286 91.3339L36.1556 89.2711L40.1732 86.9363L43.7462 88.9992Z" fill="#384E85"/>
<path d="M64.6611 82.0556L44.2265 93.9308L40.6536 91.868L61.0881 79.9927L64.6611 82.0556Z" fill="#384E85"/>
<path d="M38.3526 92.1334L34.3351 94.4681L30.7621 92.4053L34.7796 90.0705L38.3526 92.1334Z" fill="#384E85"/>
<path d="M33.8545 89.5365L24.4435 95.0056L20.8761 92.9459L30.2871 87.4768L33.8545 89.5365Z" fill="#384E85"/>
<path d="M32.9536 95.2709L28.9415 97.6025L25.3685 95.5396L29.3806 93.2081L32.9536 95.2709Z" fill="#384E85"/>
<path d="M42.8507 94.7304L33.4397 100.199L29.8667 98.1366L39.2777 92.6675L42.8507 94.7304Z" fill="#384E85"/>
<path d="M24.8639 84.3457L20.8464 86.6805L19.118 85.6826L23.1356 83.3479L24.8639 84.3457Z" fill="#384E85"/>
<path d="M68.028 59.2616L64.0104 61.5963L62.2821 60.5985L66.2996 58.2637L68.028 59.2616Z" fill="#384E85"/>
<path d="M58.349 70.0974L54.3314 72.4321L50.7584 70.3693L54.776 68.0345L58.349 70.0974Z" fill="#384E85"/>
<path d="M69.829 79.0524L65.8114 81.3872L62.2384 79.3243L66.256 76.9896L69.829 79.0524Z" fill="#384E85"/>
<path d="M65.3309 76.4554L61.3134 78.7902L57.7404 76.7273L61.7579 74.3926L65.3309 76.4554Z" fill="#384E85"/>
<path d="M60.8328 73.8584L56.8152 76.1932L53.2478 74.1335L57.2654 71.7988L60.8328 73.8584Z" fill="#384E85"/>
<path d="M80.6213 72.7806L76.6037 75.1153L73.0308 73.0524L77.0483 70.7177L80.6213 72.7806Z" fill="#384E85"/>
<path d="M75.2224 75.9181L71.2103 78.2496L67.6373 76.1868L71.6494 73.8552L75.2224 75.9181Z" fill="#384E85"/>
<path d="M25.9719 88.9129L19.951 92.4119L16.3781 90.349L22.3989 86.85L25.9719 88.9129Z" fill="#384E85"/>
<path d="M13.8058 53.3641C14.5837 52.9149 15.043 53.0132 15.3717 53.311L14.9302 54.0269C14.6478 53.7423 14.2852 53.7654 13.8424 54.0211C12.9413 54.5414 12.3698 55.6736 12.3729 56.7621C12.3759 57.8463 12.952 58.3248 13.8531 57.8045C14.296 57.5488 14.6574 57.1407 14.9373 56.5403L15.3814 56.7492C15.0555 57.4294 14.5983 58.0568 13.8204 58.5059C12.5496 59.2396 11.6915 58.6093 11.6874 57.1579C11.6833 55.7065 12.535 54.0978 13.8058 53.3641Z" fill="#D9DDF6"/>
<path d="M16.6707 55.7212C16.9325 55.57 17.1566 55.6977 17.1575 55.9986C17.1583 56.3039 16.9357 56.6851 16.6738 56.8363C16.4081 56.9897 16.1879 56.8642 16.187 56.5589C16.1862 56.258 16.405 55.8746 16.6707 55.7212Z" fill="#D9DDF6"/>
<path d="M17.0033 52.5218C17.1931 52.1952 17.1936 51.8413 17.0045 51.7314C16.8153 51.6214 16.5081 51.7971 16.3183 52.1237C16.1285 52.4503 16.128 52.8041 16.3171 52.9141C16.5063 53.024 16.8135 52.8484 17.0033 52.5218Z" fill="#D9DDF6"/>
<path d="M18.1442 48.9091L20.2555 54.8704L19.7356 55.1705L17.6243 49.2093L18.1442 48.9091Z" fill="#D9DDF6"/>
<path d="M22.2589 45.8465L25.9447 47.9514L22.2829 54.2983L21.6917 53.9614L24.774 48.6272L21.6716 46.8637L22.2589 45.8465Z" fill="#D9DDF6"/>
<path d="M30.0603 47.9597L30.0648 49.5438L26.2101 51.7694L26.2056 50.1852L30.0603 47.9597Z" fill="#D9DDF6"/>
</svg>
