<svg width="13" height="120" viewBox="0 0 13 120" fill="none" xmlns="http://www.w3.org/2000/svg">
<path d="M6.64655 90.4819L48.4465 114.773C49.3325 115.29 50.7597 115.29 51.6456 114.782L115.159 78.1072C116.045 77.5987 116.045 76.7702 115.159 76.2534L73.3593 51.962C72.4816 51.4534 71.0543 51.4534 70.1684 51.962L6.65476 88.6281C5.76885 89.1449 5.76064 89.9733 6.64655 90.4819Z" fill="#AABAFD"/>
<path d="M5.99036 89.5632L5.99856 92.0083C5.99856 92.3364 6.22001 92.6727 6.65477 92.927L48.4548 117.218C49.3407 117.727 50.7679 117.727 51.6538 117.218L115.168 80.5523C115.61 80.298 115.832 79.9618 115.832 79.6172L115.824 77.1803C115.824 77.5166 115.602 77.8529 115.159 78.1072L51.6456 114.782C50.7597 115.29 49.3325 115.29 48.4465 114.773L6.64656 90.4819C6.20364 90.2276 5.99036 89.8995 5.99036 89.5632Z" fill="#798FFE"/>
<path d="M70.0449 3.59438C70.9299 3.08339 71.6497 3.49358 71.6526 4.5106L71.7659 49.1953C71.7687 50.2063 71.0536 51.451 70.1685 51.962L7.57015 88.0998C6.68507 88.6108 5.96524 88.1946 5.96236 87.1836L5.84913 42.4989C5.84625 41.4819 6.5614 40.2432 7.44647 39.7322L70.0449 3.59438Z" fill="#1B2A4F"/>
<path d="M4.16809 41.5249L4.28293 86.2079C4.28293 86.7083 4.46341 87.0692 4.7505 87.2333L6.4294 88.2096C6.14226 88.0456 5.96183 87.6847 5.96183 87.1842L5.84699 42.5013C5.84699 41.4841 6.56063 40.2455 7.44654 39.7288L70.0452 3.59505C70.4882 3.34077 70.8901 3.3162 71.1854 3.48021L69.5065 2.50387C69.2194 2.3398 68.8093 2.36438 68.3664 2.61866L5.76764 38.7606C4.88173 39.2692 4.16809 40.5078 4.16809 41.5249Z" fill="#384E85"/>
<path d="M8.10852 41.9539L8.21746 85.1221L69.5066 49.7403L69.3976 6.57205L8.10852 41.9539Z" fill="#384E85"/>
<path d="M8.10852 41.9539L8.12681 49.1945L69.4159 13.8126L69.3976 6.57205L8.10852 41.9539Z" fill="#AABAFD"/>
<path d="M13.8058 53.3641C14.5837 52.915 15.043 53.0132 15.3717 53.311L14.9302 54.0269C14.6478 53.7423 14.2852 53.7654 13.8424 54.0211C12.9413 54.5414 12.3698 55.6736 12.3729 56.7621C12.3759 57.8463 12.952 58.3248 13.8531 57.8045C14.296 57.5488 14.6574 57.1407 14.9373 56.5403L15.3814 56.7492C15.0555 57.4294 14.5983 58.0568 13.8204 58.506C12.5496 59.2397 11.6915 58.6093 11.6874 57.1579C11.6833 55.7065 12.535 54.0978 13.8058 53.3641Z" fill="#D9DDF6"/>
</svg>
