<svg width="13" height="12" viewBox="0 0 13 12" fill="none" xmlns="http://www.w3.org/2000/svg">
<g clip-path="url(#clip0_2568_12121)">
<g clip-path="url(#clip1_2568_12121)">
<path d="M8.28137 5.5C9.11137 5.5 9.77637 4.83 9.77637 4C9.77637 3.17 9.11137 2.5 8.28137 2.5C7.45137 2.5 6.78137 3.17 6.78137 4C6.78137 4.83 7.45137 5.5 8.28137 5.5ZM4.28137 5.5C5.11137 5.5 5.77637 4.83 5.77637 4C5.77637 3.17 5.11137 2.5 4.28137 2.5C3.45137 2.5 2.78137 3.17 2.78137 4C2.78137 4.83 3.45137 5.5 4.28137 5.5ZM4.28137 6.5C3.11637 6.5 0.781372 7.085 0.781372 8.25V9.5H7.78137V8.25C7.78137 7.085 5.44637 6.5 4.28137 6.5ZM8.28137 6.5C8.13637 6.5 7.97137 6.51 7.79637 6.525C8.37637 6.945 8.78137 7.51 8.78137 8.25V9.5H11.7814V8.25C11.7814 7.085 9.44637 6.5 8.28137 6.5Z" fill="white"/>
</g>
</g>
<defs>
<clipPath id="clip0_2568_12121">
<rect width="12" height="12" fill="white" transform="translate(0.281372)"/>
</clipPath>
<clipPath id="clip1_2568_12121">
<rect width="12" height="12" fill="white" transform="translate(0.281372)"/>
</clipPath>
</defs>
</svg>
