<svg width="13" height="12" viewBox="0 0 13 12" fill="none" xmlns="http://www.w3.org/2000/svg">
<g clip-path="url(#clip0_2568_11761)">
<g clip-path="url(#clip1_2568_11761)">
<path d="M8.12195 5.5C8.95195 5.5 9.61695 4.83 9.61695 4C9.61695 3.17 8.95195 2.5 8.12195 2.5C7.29195 2.5 6.62195 3.17 6.62195 4C6.62195 4.83 7.29195 5.5 8.12195 5.5ZM4.12195 5.5C4.95195 5.5 5.61695 4.83 5.61695 4C5.61695 3.17 4.95195 2.5 4.12195 2.5C3.29195 2.5 2.62195 3.17 2.62195 4C2.62195 4.83 3.29195 5.5 4.12195 5.5ZM4.12195 6.5C2.95695 6.5 0.621948 7.085 0.621948 8.25V9.5H7.62195V8.25C7.62195 7.085 5.28695 6.5 4.12195 6.5ZM8.12195 6.5C7.97695 6.5 7.81195 6.51 7.63695 6.525C8.21695 6.945 8.62195 7.51 8.62195 8.25V9.5H11.6219V8.25C11.6219 7.085 9.28695 6.5 8.12195 6.5Z" fill="white"/>
</g>
</g>
<defs>
<clipPath id="clip0_2568_11761">
<rect width="12" height="12" fill="white" transform="translate(0.121948)"/>
</clipPath>
<clipPath id="clip1_2568_11761">
<rect width="12" height="12" fill="white" transform="translate(0.121948)"/>
</clipPath>
</defs>
</svg>
