<svg width="215" height="283" viewBox="0 0 215 283" fill="none" xmlns="http://www.w3.org/2000/svg">
<g opacity="0.1" clip-path="url(#clip0_2568_11866)">
<path d="M83.9917 154.906C91.2503 149.14 92.46 138.581 86.6936 131.323C80.9273 124.064 70.3685 122.854 63.11 128.621C55.8514 134.387 54.6417 144.946 60.408 152.204C66.1744 159.463 76.7331 160.673 83.9917 154.906Z" fill="white"/>
<path d="M97.47 171.872C79.0125 186.535 61.1588 197.174 45.8033 202.625C35.8537 206.174 26.3752 207.896 18.4127 207.602C9.975 207.302 3.58162 204.737 -0.0165213 200.208C-6.92162 191.516 -4.15129 175.436 7.43594 157.178C16.9074 142.223 31.9599 126.123 49.8153 111.939C67.3565 98.0037 86.1458 87.0913 102.735 81.2576C112.434 77.8233 121.552 76.1312 129.102 76.2823C137.337 76.4879 143.553 78.9374 147.068 83.362C154.243 92.3944 150.846 109.996 138.185 129.322C129.24 143.004 114.776 158.124 97.47 171.872ZM54.8331 118.201C37.8941 131.658 23.0934 147.43 14.2309 161.431C3.59372 178.251 2.57014 190.509 6.29307 195.195C10.1616 200.065 23.3506 202.1 43.1241 195.06C57.6379 189.893 74.7278 179.69 92.4784 165.589C109.129 152.361 122.991 137.933 131.479 124.912C143.369 106.712 144.658 93.1762 140.81 88.3328C138.835 85.8456 134.62 84.4108 128.923 84.2817C122.349 84.1235 114.198 85.6884 105.42 88.7759C89.6667 94.3723 71.6936 104.807 54.8331 118.201Z" fill="white"/>
<path d="M95.7689 230.958C93.0985 233.079 90.2846 234.375 87.3798 234.804C76.4133 236.427 63.8535 225.993 53.8144 206.851C45.5702 191.152 39.1773 170.096 35.8131 147.531C32.5205 125.378 32.438 103.665 35.6564 86.3756C37.529 76.2618 40.6034 67.4994 44.5314 61.048C48.8113 54.0181 54.0475 49.8584 59.617 49.021C71.0224 47.3054 84.5959 59.0699 94.9904 79.6799C102.382 94.3058 108.245 114.373 111.523 136.238C114.995 159.53 115.279 180.314 112.347 196.351C110.442 206.747 107.189 215.822 102.967 222.549C100.778 226.082 98.3347 228.92 95.7689 230.958ZM39.7576 146.959L43.7284 146.367C46.9191 167.746 53.1618 188.452 60.9028 203.142C70.1638 220.766 80.2863 227.756 86.1692 226.883C87.6216 226.669 89.1803 225.943 90.7773 224.675C95.9873 220.536 101.561 210.727 104.466 194.925C107.249 179.775 106.936 159.868 103.603 137.449C100.468 116.409 94.8627 97.2045 87.8604 83.3371C78.0414 63.9353 66.9715 56.0749 60.8222 56.9887C57.6978 57.4637 54.3405 60.3869 51.3787 65.2594C47.9495 70.8874 45.2439 78.7163 43.5521 87.8751C40.5038 104.303 40.5738 125.087 43.7492 146.393L39.7576 146.959Z" fill="white"/>
<path d="M155.472 183.657C148.351 189.315 135.907 192.196 120.035 191.568C102.314 190.87 80.8945 185.894 59.6487 177.534C38.7888 169.337 19.9639 158.542 6.56682 147.107C-1.259 140.427 -7.30817 133.404 -10.9514 126.775C-14.9058 119.54 -15.912 112.952 -13.8313 107.669C-9.62756 96.9415 7.34827 91.0569 30.4041 92.3419C46.7458 93.2384 67.0738 98.1852 87.6364 106.276C109.565 114.905 127.729 125.03 140.132 135.589C148.177 142.436 154.428 149.768 158.169 156.789C162.144 164.265 163.102 171.062 160.985 176.459C159.936 179.171 158.064 181.598 155.472 183.657ZM62.5985 170.066C82.7283 177.989 103.798 182.901 120.36 183.538C140.237 184.316 151.357 179.069 153.543 173.489C155.824 167.706 150.989 155.276 134.983 141.686C123.226 131.724 105.844 122.046 84.7335 113.75C64.9219 105.959 45.4758 101.208 29.9851 100.361C8.27623 99.1593 -4.05649 104.814 -6.33735 110.598C-7.50665 113.534 -6.62866 117.918 -3.89376 122.92C-0.72282 128.685 4.69702 134.97 11.7888 140.994C24.5142 151.852 42.5365 162.175 62.5985 170.066Z" fill="white"/>
</g>
<defs>
<clipPath id="clip0_2568_11866">
<rect width="200.62" height="200.62" fill="white" transform="translate(-67.1729 125.618) rotate(-38.4642)"/>
</clipPath>
</defs>
</svg>
