<svg width="24" height="24" viewBox="0 0 24 24" fill="none" xmlns="http://www.w3.org/2000/svg">
<g clip-path="url(#clip0_2568_12925)">
<path d="M6.20305 8.44833H2.49323V20.2114H6.20305V8.44833Z" fill="white"/>
<path fill-rule="evenodd" clip-rule="evenodd" d="M6.51764 4.66197C6.51764 5.09114 6.39037 5.51068 6.15194 5.86752C5.9135 6.22436 5.5746 6.50249 5.1781 6.66673C4.7816 6.83096 4.34533 6.87392 3.92441 6.79019C3.50349 6.70646 3.11683 6.49982 2.81336 6.19635C2.50989 5.89288 2.30321 5.50622 2.21949 5.0853C2.13576 4.66437 2.17874 4.22808 2.34298 3.83158C2.50722 3.43508 2.78534 3.0962 3.14218 2.85777C3.49902 2.61934 3.91854 2.49207 4.34771 2.49207C4.92321 2.49207 5.47513 2.72068 5.88206 3.12761C6.289 3.53455 6.51764 4.08647 6.51764 4.66197Z" fill="white"/>
<path fill-rule="evenodd" clip-rule="evenodd" d="M16.2484 8.01552C15.5007 7.95357 14.7496 8.08488 14.0672 8.39687C13.3849 8.70886 12.7942 9.19106 12.3519 9.79713V8.4527H8.64214V20.2157H12.3519V13.2706C12.3519 13.2706 12.6736 11.2037 14.4188 11.2037C16.164 11.2037 16.4687 13.1009 16.4687 13.6349V20.2673H20.1777V13.2706C20.1777 11.0296 19.3309 8.01552 16.2484 8.01552Z" fill="white"/>
</g>
<defs>
<clipPath id="clip0_2568_12925">
<rect width="24" height="24" fill="white"/>
</clipPath>
</defs>
</svg>
