<svg width="88" height="24" viewBox="0 0 88 24" fill="none" xmlns="http://www.w3.org/2000/svg">
<g clip-path="url(#clip0_1824_18654)">
<path d="M64 12C64 5.37258 69.3726 0 76 0C82.6274 0 88 5.37258 88 12C88 18.6274 82.6274 24 76 24C69.3726 24 64 18.6274 64 12Z" fill="#E0E0E0"/>
<path d="M64.5 12C64.5 5.64873 69.6487 0.5 76 0.5C82.3513 0.5 87.5 5.64873 87.5 12C87.5 18.3513 82.3513 23.5 76 23.5C69.6487 23.5 64.5 18.3513 64.5 12Z" stroke="black" stroke-opacity="0.12"/>
<path d="M71.359 8.50138C71.2708 8.79224 70.9975 9 70.6713 9H68L68.7141 6.49862C68.7935 6.19945 69.0756 6 69.4018 6H72.0643L71.359 8.50138Z" fill="white"/>
<path d="M83.2978 8.5346C83.2217 8.82738 82.9509 9.02814 82.6464 9.02814H77.2403L75.7193 14.2673L74.1984 19.5065C74.1138 19.7992 73.8515 20 73.5385 20H71L72.5423 14.5099L74.0846 9.01977L74.9052 6H84L83.2978 8.5346Z" fill="white"/>
</g>
<g clip-path="url(#clip1_1824_18654)">
<path d="M48 12C48 5.37258 53.3726 0 60 0C66.6274 0 72 5.37258 72 12C72 18.6274 66.6274 24 60 24C53.3726 24 48 18.6274 48 12Z" fill="#E0E0E0"/>
<path d="M48.5 12C48.5 5.64873 53.6487 0.5 60 0.5C66.3513 0.5 71.5 5.64873 71.5 12C71.5 18.3513 66.3513 23.5 60 23.5C53.6487 23.5 48.5 18.3513 48.5 12Z" stroke="black" stroke-opacity="0.12"/>
<path d="M55.359 8.50138C55.2708 8.79224 54.9975 9 54.6713 9H52L52.7141 6.49862C52.7935 6.19945 53.0756 6 53.4018 6H56.0643L55.359 8.50138Z" fill="white"/>
<path d="M67.2978 8.5346C67.2217 8.82738 66.9509 9.02814 66.6464 9.02814H61.2403L59.7193 14.2673L58.1984 19.5065C58.1138 19.7992 57.8515 20 57.5385 20H55L56.5423 14.5099L58.0846 9.01977L58.9052 6H68L67.2978 8.5346Z" fill="white"/>
</g>
<g clip-path="url(#clip2_1824_18654)">
<path d="M32 12C32 5.37258 37.3726 0 44 0C50.6274 0 56 5.37258 56 12C56 18.6274 50.6274 24 44 24C37.3726 24 32 18.6274 32 12Z" fill="#E0E0E0"/>
<path d="M32.5 12C32.5 5.64873 37.6487 0.5 44 0.5C50.3513 0.5 55.5 5.64873 55.5 12C55.5 18.3513 50.3513 23.5 44 23.5C37.6487 23.5 32.5 18.3513 32.5 12Z" stroke="black" stroke-opacity="0.12"/>
<path d="M39.359 8.50138C39.2708 8.79224 38.9975 9 38.6713 9H36L36.7141 6.49862C36.7935 6.19945 37.0756 6 37.4018 6H40.0643L39.359 8.50138Z" fill="white"/>
<path d="M51.2978 8.5346C51.2217 8.82738 50.9509 9.02814 50.6464 9.02814H45.2403L43.7193 14.2673L42.1984 19.5065C42.1138 19.7992 41.8515 20 41.5385 20H39L40.5423 14.5099L42.0846 9.01977L42.9052 6H52L51.2978 8.5346Z" fill="white"/>
</g>
<g clip-path="url(#clip3_1824_18654)">
<path d="M16 12C16 5.37258 21.3726 0 28 0C34.6274 0 40 5.37258 40 12C40 18.6274 34.6274 24 28 24C21.3726 24 16 18.6274 16 12Z" fill="#E0E0E0"/>
<path d="M16.5 12C16.5 5.64873 21.6487 0.5 28 0.5C34.3513 0.5 39.5 5.64873 39.5 12C39.5 18.3513 34.3513 23.5 28 23.5C21.6487 23.5 16.5 18.3513 16.5 12Z" stroke="black" stroke-opacity="0.12"/>
<path d="M23.359 8.50138C23.2708 8.79224 22.9975 9 22.6713 9H20L20.7141 6.49862C20.7935 6.19945 21.0756 6 21.4018 6H24.0643L23.359 8.50138Z" fill="white"/>
<path d="M35.2978 8.5346C35.2217 8.82738 34.9509 9.02814 34.6464 9.02814H29.2403L27.7193 14.2673L26.1984 19.5065C26.1138 19.7992 25.8515 20 25.5385 20H23L24.5423 14.5099L26.0846 9.01977L26.9052 6H36L35.2978 8.5346Z" fill="white"/>
</g>
<g clip-path="url(#clip4_1824_18654)">
<path d="M0 12C0 5.37258 5.37258 0 12 0C18.6274 0 24 5.37258 24 12C24 18.6274 18.6274 24 12 24C5.37258 24 0 18.6274 0 12Z" fill="#E0E0E0"/>
<path d="M0.5 12C0.5 5.64873 5.64873 0.5 12 0.5C18.3513 0.5 23.5 5.64873 23.5 12C23.5 18.3513 18.3513 23.5 12 23.5C5.64873 23.5 0.5 18.3513 0.5 12Z" stroke="black" stroke-opacity="0.12"/>
<path d="M7.35896 8.50138C7.2708 8.79224 6.9975 9 6.6713 9H4L4.71411 6.49862C4.79345 6.19945 5.07557 6 5.40177 6H8.06426L7.35896 8.50138Z" fill="white"/>
<path d="M19.2978 8.5346C19.2217 8.82738 18.9509 9.02814 18.6464 9.02814H13.2403L11.7193 14.2673L10.1984 19.5065C10.1138 19.7992 9.85154 20 9.53851 20H7L8.54229 14.5099L10.0846 9.01977L10.9052 6H20L19.2978 8.5346Z" fill="white"/>
</g>
<defs>
<clipPath id="clip0_1824_18654">
<rect width="24" height="24" fill="white" transform="translate(64)"/>
</clipPath>
<clipPath id="clip1_1824_18654">
<rect width="24" height="24" fill="white" transform="translate(48)"/>
</clipPath>
<clipPath id="clip2_1824_18654">
<rect width="24" height="24" fill="white" transform="translate(32)"/>
</clipPath>
<clipPath id="clip3_1824_18654">
<rect width="24" height="24" fill="white" transform="translate(16)"/>
</clipPath>
<clipPath id="clip4_1824_18654">
<rect width="24" height="24" fill="white"/>
</clipPath>
</defs>
</svg>
