<svg width="24" height="24" viewBox="0 0 24 24" fill="none" xmlns="http://www.w3.org/2000/svg">
<path d="M12 24C18.6274 24 24 18.6274 24 12C24 5.37258 18.6274 0 12 0C5.37258 0 0 5.37258 0 12C0 18.6274 5.37258 24 12 24Z" fill="white"/>
<path d="M12.0564 19.9951C11.7405 19.9959 11.4355 19.8795 11.2004 19.6685C11.0763 19.5594 10.9787 19.4233 10.9153 19.2706C10.8518 19.118 10.8241 18.9529 10.8343 18.7879V18.7582C10.8327 18.5977 10.8639 18.4385 10.926 18.2905C10.9881 18.1424 11.0798 18.0086 11.1955 17.8973C11.3982 17.6979 11.6642 17.5754 11.9475 17.551H12.1602C12.473 17.5588 12.7699 17.6902 12.986 17.9165C13.2021 18.1427 13.3196 18.4454 13.313 18.7582V18.7928C13.3213 18.9564 13.2931 19.1198 13.2307 19.2712C13.1682 19.4226 13.073 19.5583 12.9518 19.6685C12.7247 19.8833 12.4234 20.0021 12.1108 20L12.0564 19.9951Z" fill="url(#paint0_linear_2568_14819)"/>
<path d="M11.7792 15.6314C11.5428 15.6331 11.3146 15.5446 11.141 15.384C11.0461 15.269 10.9749 15.1364 10.9316 14.9937C10.8883 14.851 10.8737 14.7012 10.8887 14.5529C10.8703 14.0925 10.944 13.633 11.1054 13.2015C11.2668 12.7699 11.5127 12.3749 11.8287 12.0396C12.2245 11.6289 12.645 11.2232 13.0853 10.8472C13.5257 10.4712 13.9214 10.0952 14.1441 9.85775C14.3811 9.61837 14.5857 9.34891 14.7526 9.05627C14.9297 8.7296 15.0232 8.36416 15.0247 7.99258C15.028 7.64696 14.9578 7.30458 14.8188 6.98814C14.6798 6.6717 14.4751 6.38842 14.2183 6.15708C13.691 5.68779 13.0095 5.42892 12.3036 5.42981H12.1948C11.8102 5.40188 11.4239 5.45383 11.0604 5.5824C10.6968 5.71096 10.3638 5.91336 10.0822 6.17687C9.58244 6.75135 9.21133 7.4261 8.99381 8.15584C8.74149 8.99195 8.32096 9.1008 8.00433 9.1008C7.8702 9.10096 7.73745 9.07385 7.61413 9.02112C7.49081 8.96839 7.37949 8.89114 7.28695 8.79406C7.1991 8.71314 7.12842 8.61537 7.07912 8.50658C7.02983 8.39779 7.00292 8.28019 7 8.16079C7.01341 7.48097 7.22302 6.81951 7.60359 6.25603C8.04795 5.58457 8.65349 5.03517 9.36487 4.65801C10.1948 4.22683 11.1161 4.00118 12.0513 4H12.3432C13.2193 3.99909 14.0852 4.18814 14.8812 4.55412C15.5819 4.88333 16.1803 5.39624 16.6128 6.03834C17.0075 6.62247 17.2162 7.31236 17.2115 8.01731C17.2214 8.52036 17.1075 9.01814 16.88 9.46691C16.6576 9.88286 16.3741 10.2631 16.0389 10.5949C15.6629 10.961 14.995 11.5844 14.1639 12.3216C13.9324 12.5144 13.7142 12.7227 13.5108 12.9449C13.3574 13.1187 13.2245 13.3096 13.115 13.5139C13.028 13.6708 12.9583 13.8367 12.9072 14.0086L12.8825 14.0927C12.8429 14.2461 12.7835 14.4836 12.7143 14.8052C12.6153 15.3692 12.3531 15.5968 11.8188 15.5968L11.7792 15.6314Z" fill="url(#paint1_linear_2568_14819)"/>
<defs>
<linearGradient id="paint0_linear_2568_14819" x1="12.0733" y1="17.551" x2="12.0733" y2="20" gradientUnits="userSpaceOnUse">
<stop stop-color="#F09819"/>
<stop offset="1" stop-color="#FF512F"/>
</linearGradient>
<linearGradient id="paint1_linear_2568_14819" x1="12.106" y1="4" x2="12.106" y2="15.6314" gradientUnits="userSpaceOnUse">
<stop stop-color="#F09819"/>
<stop offset="1" stop-color="#FF512F"/>
</linearGradient>
</defs>
</svg>
