<svg width="24" height="24" viewBox="0 0 24 24" fill="none" xmlns="http://www.w3.org/2000/svg">
<path d="M12 24C18.6274 24 24 18.6274 24 12C24 5.37258 18.6274 0 12 0C5.37258 0 0 5.37258 0 12C0 18.6274 5.37258 24 12 24Z" fill="white"/>
<g clip-path="url(#clip0_2568_10351)">
<path d="M12 20.7917L10.7917 19.6917C6.49999 15.8 3.66666 13.2333 3.66666 10.0833C3.66666 7.51667 5.68332 5.5 8.24999 5.5C9.69999 5.5 11.0917 6.175 12 7.24167C12.9083 6.175 14.3 5.5 15.75 5.5C18.3167 5.5 20.3333 7.51667 20.3333 10.0833C20.3333 13.2333 17.5 15.8 13.2083 19.7L12 20.7917Z" fill="#F9302A"/>
</g>
<defs>
<clipPath id="clip0_2568_10351">
<rect width="20" height="20" fill="white" transform="translate(2 3)"/>
</clipPath>
</defs>
</svg>
