<svg width="40" height="40" viewBox="0 0 40 40" fill="none" xmlns="http://www.w3.org/2000/svg">
<path d="M20 40C31.0457 40 40 31.0457 40 20C40 8.9543 31.0457 0 20 0C8.9543 0 0 8.9543 0 20C0 31.0457 8.9543 40 20 40Z" fill="#006DB2"/>
<path d="M19.9614 31.0126C17.2053 31.0153 14.533 30.0652 12.3971 28.3233C10.2613 26.5813 8.79324 24.1546 8.24172 21.4542C7.69019 18.7539 8.08908 15.9458 9.3708 13.5059C10.6525 11.0659 12.7383 9.14403 15.2748 8.06578C15.4947 7.97807 15.74 7.97807 15.9599 8.06578C16.1743 8.16106 16.3436 8.33532 16.4327 8.55228C16.4787 8.66064 16.5024 8.77715 16.5024 8.89487C16.5024 9.01259 16.4787 9.1291 16.4327 9.23746C15.8927 10.4996 15.6175 11.8592 15.6242 13.2321C15.626 15.9325 16.6991 18.522 18.608 20.4322C20.5169 22.3423 23.1056 23.4171 25.8061 23.4208C27.1773 23.4265 28.5349 23.1489 29.7938 22.6054C29.9046 22.5597 30.0234 22.5364 30.1433 22.5369C30.2633 22.535 30.3823 22.5583 30.4927 22.6054C30.7078 22.6974 30.8777 22.871 30.965 23.0881C31.0523 23.3051 31.0501 23.548 30.9586 23.7634C30.0456 25.9162 28.5193 27.7527 26.5699 29.0442C24.6204 30.3357 22.3341 31.025 19.9957 31.0263L19.9614 31.0126ZM14.1168 10.7174C12.9 11.5715 11.885 12.6815 11.1427 13.9696C10.4005 15.2576 9.94907 16.6924 9.8202 18.1734C9.69132 19.6544 9.88808 21.1457 10.3967 22.5425C10.9053 23.9394 11.7134 25.2081 12.7643 26.2595C13.8152 27.3109 15.0835 28.1196 16.4801 28.6289C17.8767 29.1382 19.3679 29.3357 20.8489 29.2075C22.33 29.0793 23.765 28.6286 25.0534 27.887C26.3418 27.1454 27.4523 26.1308 28.307 24.9145C26.5649 25.2835 24.7625 25.2591 23.0311 24.8433C21.2997 24.4274 19.6828 23.6305 18.2984 22.5106C16.914 21.3907 15.7968 19.9761 15.0284 18.3698C14.2599 16.7634 13.8596 15.0059 13.8564 13.2252C13.8538 12.3824 13.941 11.5417 14.1168 10.7174Z" fill="white"/>
<path d="M23.1609 10.7858C23.1699 10.8287 23.1699 10.8731 23.1609 10.916C23.1427 10.9646 23.1147 11.0089 23.0787 11.0462C22.1504 11.9757 21.4472 13.1055 21.0231 14.3488C21.7622 14.0798 22.5392 13.9295 23.3253 13.9034L23.3664 14.5886C22.2342 14.615 21.1249 14.9134 20.1324 15.4588L19.9885 15.1642C19.9815 15.1256 19.9815 15.0862 19.9885 15.0477C19.9817 15.0069 19.9817 14.9652 19.9885 14.9244C20.2632 13.6261 20.8303 12.4076 21.6466 11.3614C20.6644 11.5293 19.7128 11.8434 18.8237 12.2932L18.5427 11.6903C19.9875 10.9377 21.5869 10.5296 23.2157 10.498L23.1609 10.7858Z" fill="white"/>
<path d="M27.7792 12.6771C27.756 12.7284 27.7235 12.7748 27.6833 12.8142C27.6452 12.8527 27.5981 12.8809 27.5463 12.8964C26.8183 13.2002 26.1412 13.6138 25.5387 14.1229C26.0471 14.2083 26.5454 14.3461 27.0255 14.534L26.82 15.089C26.0789 14.7836 25.2909 14.6075 24.4903 14.5682V14.253C24.4827 14.2123 24.4827 14.1705 24.4903 14.1297C24.5161 14.0821 24.5484 14.0382 24.5863 13.9995C25.1438 13.43 25.7836 12.9474 26.4842 12.5675C25.9062 12.4095 25.3141 12.3085 24.7164 12.266L24.7644 11.6836C25.8164 11.7395 26.8516 11.9711 27.8272 12.3688L27.7792 12.6771Z" fill="white"/>
<path d="M31.7464 15.2742C31.707 15.3109 31.6603 15.3389 31.6094 15.3564C31.555 15.366 31.4994 15.366 31.445 15.3564C30.6443 15.3099 29.8414 15.3932 29.0674 15.603C29.5079 15.9032 29.9165 16.2476 30.287 16.6308L29.869 17.0419C29.3071 16.4429 28.6466 15.9447 27.9163 15.5688L28.067 15.2878C28.0865 15.2518 28.1148 15.2211 28.1492 15.1988C28.1922 15.1634 28.2409 15.1356 28.2931 15.1165C29.0433 14.8286 29.834 14.6598 30.6364 14.6164C30.177 14.2243 29.6788 13.8799 29.1496 13.5886L29.4374 13.0747C30.3957 13.5791 31.2621 14.2416 32 15.0343L31.7464 15.2742Z" fill="white"/>
</svg>
