<svg width="46" height="51" viewBox="0 0 46 51" fill="none" xmlns="http://www.w3.org/2000/svg">
<g filter="url(#filter0_ddd_508_153)">
<rect x="-4" width="32" height="32" rx="16" fill="url(#paint0_linear_508_153)"/>
<g clip-path="url(#clip0_508_153)">
<path d="M3.75 22.75H6.75V13.75H3.75V22.75ZM20.25 14.5C20.25 13.675 19.575 13 18.75 13H14.0175L14.73 9.5725L14.7525 9.3325C14.7525 9.025 14.625 8.74 14.4225 8.5375L13.6275 7.75L8.6925 12.6925C8.415 12.9625 8.25 13.3375 8.25 13.75V21.25C8.25 22.075 8.925 22.75 9.75 22.75H16.5C17.1225 22.75 17.655 22.375 17.88 21.835L20.145 16.5475C20.2125 16.375 20.25 16.195 20.25 16V14.5Z" fill="white"/>
</g>
</g>
<defs>
<filter id="filter0_ddd_508_153" x="-22" y="-17" width="68" height="68" filterUnits="userSpaceOnUse" color-interpolation-filters="sRGB">
<feFlood flood-opacity="0" result="BackgroundImageFix"/>
<feColorMatrix in="SourceAlpha" type="matrix" values="0 0 0 0 0 0 0 0 0 0 0 0 0 0 0 0 0 0 127 0" result="hardAlpha"/>
<feOffset dy="1"/>
<feGaussianBlur stdDeviation="9"/>
<feColorMatrix type="matrix" values="0 0 0 0 0 0 0 0 0 0 0 0 0 0 0 0 0 0 0.12 0"/>
<feBlend mode="normal" in2="BackgroundImageFix" result="effect1_dropShadow_508_153"/>
<feColorMatrix in="SourceAlpha" type="matrix" values="0 0 0 0 0 0 0 0 0 0 0 0 0 0 0 0 0 0 127 0" result="hardAlpha"/>
<feOffset dy="6"/>
<feGaussianBlur stdDeviation="5"/>
<feColorMatrix type="matrix" values="0 0 0 0 0 0 0 0 0 0 0 0 0 0 0 0 0 0 0.14 0"/>
<feBlend mode="normal" in2="effect1_dropShadow_508_153" result="effect2_dropShadow_508_153"/>
<feColorMatrix in="SourceAlpha" type="matrix" values="0 0 0 0 0 0 0 0 0 0 0 0 0 0 0 0 0 0 127 0" result="hardAlpha"/>
<feMorphology radius="1" operator="erode" in="SourceAlpha" result="effect3_dropShadow_508_153"/>
<feOffset dy="3"/>
<feGaussianBlur stdDeviation="2.5"/>
<feColorMatrix type="matrix" values="0 0 0 0 0 0 0 0 0 0 0 0 0 0 0 0 0 0 0.2 0"/>
<feBlend mode="normal" in2="effect2_dropShadow_508_153" result="effect3_dropShadow_508_153"/>
<feBlend mode="normal" in="SourceGraphic" in2="effect3_dropShadow_508_153" result="shape"/>
</filter>
<linearGradient id="paint0_linear_508_153" x1="12" y1="0" x2="12" y2="32" gradientUnits="userSpaceOnUse">
<stop stop-color="#14D8C8"/>
<stop offset="0.578125" stop-color="#06ADB7"/>
<stop offset="1" stop-color="#047980"/>
</linearGradient>
<clipPath id="clip0_508_153">
<rect width="18" height="18" fill="white" transform="translate(3 7)"/>
</clipPath>
</defs>
</svg>
