<svg width="32" height="31" viewBox="0 0 32 31" fill="none" xmlns="http://www.w3.org/2000/svg">
<path d="M15.9486 30.6835C12.2737 30.6871 8.71061 29.4203 5.86282 27.0977C3.01503 24.7751 1.05766 21.5395 0.322287 17.939C-0.413081 14.3385 0.118767 10.5944 1.82774 7.34115C3.53671 4.08786 6.31772 1.52537 9.69967 0.0877095C9.99297 -0.0292365 10.32 -0.0292365 10.6133 0.0877095C10.899 0.214745 11.1248 0.447092 11.2436 0.736372C11.3049 0.880857 11.3365 1.03621 11.3365 1.19316C11.3365 1.35012 11.3049 1.50547 11.2436 1.64995C10.5236 3.33286 10.1567 5.14563 10.1656 6.97608C10.168 10.5767 11.5988 14.0293 14.144 16.5762C16.6891 19.1231 20.1408 20.5562 23.7414 20.561C25.5697 20.5686 27.3799 20.1985 29.0584 19.4739C29.2062 19.4129 29.3645 19.3818 29.5244 19.3825C29.6844 19.38 29.8431 19.4111 29.9903 19.4739C30.2771 19.5966 30.5036 19.828 30.62 20.1174C30.7365 20.4069 30.7334 20.7306 30.6115 21.0178C29.3941 23.8882 27.359 26.337 24.7598 28.059C22.1606 29.781 19.1121 30.7001 15.9942 30.7018L15.9486 30.6835ZM8.15572 3.62326C6.5334 4.76205 5.17994 6.24206 4.19028 7.95942C3.20063 9.67678 2.59877 11.5899 2.42693 13.5645C2.25509 15.5392 2.51744 17.5275 3.19557 19.39C3.8737 21.2525 4.95118 22.9441 6.3524 24.346C7.75363 25.7479 9.44464 26.8262 11.3068 27.5052C13.169 28.1842 15.1572 28.4475 17.1319 28.2767C19.1066 28.1058 21.0201 27.5048 22.7379 26.516C24.4557 25.5272 25.9364 24.1744 27.076 22.5527C24.7533 23.0446 22.3501 23.0122 20.0415 22.4577C17.7329 21.9032 15.5771 20.8407 13.7312 19.3475C11.8853 17.8543 10.3958 15.9681 9.37117 13.8264C8.34659 11.6846 7.81275 9.34117 7.80856 6.96694C7.80501 5.8432 7.92139 4.72231 8.15572 3.62326Z" fill="white"/>
<path d="M20.215 3.71462C20.2271 3.77185 20.2271 3.83097 20.215 3.8882C20.1908 3.95299 20.1534 4.01209 20.1053 4.06179C18.8676 5.30116 17.9301 6.80747 17.3646 8.46525C18.3501 8.10659 19.3861 7.9062 20.4342 7.87146L20.489 8.78504C18.9794 8.82019 17.5004 9.21811 16.1769 9.94525L15.9851 9.55241C15.9758 9.50106 15.9758 9.44848 15.9851 9.39712C15.9761 9.34268 15.9761 9.28713 15.9851 9.23268C16.3514 7.50168 17.1075 5.87696 18.196 4.48205C16.8863 4.70592 15.6176 5.12471 14.432 5.72451L14.0574 4.92055C15.9839 3.91709 18.1164 3.37303 20.2881 3.33093L20.215 3.71462Z" fill="white"/>
<path d="M26.372 6.23608C26.3411 6.3044 26.2977 6.36637 26.2441 6.41881C26.1934 6.47012 26.1305 6.50782 26.0614 6.52843C25.0908 6.93349 24.188 7.48504 23.3846 8.16377C24.0625 8.27767 24.7269 8.46134 25.3671 8.7119L25.093 9.4519C24.1048 9.04473 23.0543 8.80988 21.9868 8.75757V8.3373C21.9766 8.28296 21.9766 8.22721 21.9868 8.17286C22.0211 8.10933 22.0642 8.0509 22.1147 7.99928C22.8581 7.23997 23.7111 6.59639 24.6453 6.08993C23.8747 5.87928 23.0852 5.74465 22.2883 5.68795L22.3522 4.91138C23.7549 4.98593 25.1352 5.29472 26.4359 5.82496L26.372 6.23608Z" fill="white"/>
<path d="M31.662 9.6986C31.6094 9.74756 31.5472 9.78491 31.4793 9.80823C31.4067 9.82102 31.3325 9.82102 31.26 9.80823C30.1925 9.74626 29.1219 9.85731 28.0899 10.1371C28.6772 10.5373 29.2221 10.9965 29.716 11.5075L29.1588 12.0556C28.4095 11.2569 27.5288 10.5926 26.5551 10.0914L26.756 9.71684C26.7821 9.66872 26.8198 9.62789 26.8657 9.59807C26.923 9.55095 26.9878 9.51389 27.0575 9.48844C28.0578 9.10449 29.1121 8.87948 30.182 8.82155C29.5693 8.29872 28.9051 7.83956 28.1995 7.45118L28.5832 6.76599C29.861 7.43853 31.0162 8.32187 32 9.37882L31.662 9.6986Z" fill="white"/>
</svg>
