<svg width="16" height="24" viewBox="0 0 16 24" fill="none" xmlns="http://www.w3.org/2000/svg">
<path d="M13.1402 7.48848V4.69179H13.1489C13.3971 4.69668 13.6439 4.65332 13.875 4.56421C14.1061 4.4751 14.317 4.34201 14.4955 4.17258C14.6741 4.00315 14.8167 3.80072 14.9152 3.57695C15.0138 3.35319 15.0663 3.11249 15.0698 2.86872V1.90363C15.0659 1.40296 14.8628 0.923609 14.5039 0.567933C14.145 0.212258 13.6588 0.00844388 13.1489 0H1.92039C1.41059 0.00844603 0.924358 0.212273 0.565538 0.567961C0.206718 0.923648 0.00375659 1.403 0 1.90363V2.86917C0.00345622 3.1129 0.0559517 3.35356 0.154472 3.5773C0.252991 3.80103 0.395592 4.00343 0.574065 4.17285C0.752539 4.34228 0.963363 4.47539 1.19442 4.56453C1.42547 4.65366 1.6722 4.69707 1.92039 4.69224H2.1134V7.48894C2.11471 8.38271 2.34107 9.26231 2.77235 10.0494C3.20362 10.8365 3.82642 11.5066 4.58529 12.0002C3.82573 12.4931 3.2024 13.1631 2.77104 13.9504C2.33968 14.7376 2.11373 15.6175 2.1134 16.5115V19.3087H1.92039C1.67226 19.3038 1.42558 19.3471 1.19456 19.4361C0.963535 19.5252 0.752724 19.6582 0.57425 19.8276C0.395777 19.9969 0.253164 20.1993 0.154612 20.4229C0.0560594 20.6466 0.00351543 20.8871 0 21.1308V22.0964C0.00375659 22.597 0.206718 23.0763 0.565538 23.432C0.924358 23.7877 1.41059 23.9916 1.92039 24H13.1402C13.65 23.9916 14.1362 23.7877 14.4951 23.432C14.8539 23.0763 15.0568 22.597 15.0606 22.0964V21.1308C15.0571 20.8871 15.0045 20.6466 14.906 20.4229C14.8074 20.1993 14.6648 19.9969 14.4863 19.8276C14.3079 19.6582 14.0971 19.5252 13.866 19.4361C13.635 19.3471 13.3883 19.3038 13.1402 19.3087V16.5115C13.1386 15.6177 12.9121 14.7382 12.4808 13.9511C12.0494 13.1641 11.4267 12.4939 10.6678 12.0002C11.4276 11.5074 12.051 10.8373 12.4825 10.05C12.9139 9.26263 13.1399 8.38256 13.1402 7.48848ZM1.92039 2.88718C1.88372 2.88718 1.83787 2.90518 1.83787 2.86872V1.90363C1.83787 1.86762 1.88372 1.8046 1.92039 1.8046H13.1402C13.1769 1.8046 13.2227 1.86762 13.2227 1.90363V2.86917C13.2227 2.90564 13.1769 2.88764 13.1402 2.88764L1.92039 2.88718ZM13.1489 21.1123C13.186 21.1123 13.2319 21.0944 13.2319 21.1304V22.0959C13.2319 22.1319 13.186 22.1954 13.1489 22.1954H1.92039C1.88372 22.1954 1.83787 22.1319 1.83787 22.0959V21.1304C1.83787 21.0944 1.88372 21.1123 1.92039 21.1123H13.1489ZM11.3023 16.511V19.3082H3.95127V16.511C3.96208 15.5609 4.35408 14.6532 5.0422 13.9851C5.73032 13.3169 6.65904 12.9421 7.6268 12.9421C8.59456 12.9421 9.52327 13.3169 10.2114 13.9851C10.8995 14.6532 11.2915 15.5609 11.3023 16.511ZM7.62657 11.0977C7.14385 11.0978 6.66584 11.0045 6.21985 10.8232C5.77386 10.6419 5.36862 10.376 5.02731 10.0408C4.686 9.70565 4.41529 9.30772 4.23066 8.86978C4.04603 8.43184 3.95109 7.96246 3.95127 7.48848V4.69179H11.3023V7.48848C11.3024 7.96249 11.2074 8.43186 11.0228 8.86981C10.8381 9.30775 10.5673 9.70567 10.226 10.0408C9.88464 10.376 9.47938 10.6419 9.03336 10.8232C8.58735 11.0045 8.10931 11.0978 7.62657 11.0977Z" fill="white"/>
</svg>
