<svg width="31" height="23" viewBox="0 0 31 23" fill="none" xmlns="http://www.w3.org/2000/svg">
<path d="M3.08923 11.977C2.95946 11.8181 2.79865 11.6873 2.61664 11.5927C2.43463 11.4981 2.23523 11.4416 2.03064 11.4266C1.82604 11.4116 1.62055 11.4385 1.4267 11.5057C1.23286 11.5728 1.05474 11.6788 0.903234 11.8171C0.751728 11.9554 0.630014 12.1231 0.545529 12.3101C0.461045 12.497 0.415563 12.6992 0.411866 12.9043C0.408169 13.1094 0.446333 13.3131 0.524025 13.503C0.601718 13.6929 0.717308 13.8649 0.863732 14.0086L8.50967 22.3289C8.64383 22.48 8.80697 22.6027 8.98943 22.6896C9.17189 22.7765 9.36995 22.8258 9.57184 22.8347H9.62242C9.8219 22.8405 10.0203 22.8028 10.2037 22.7242C10.3871 22.6456 10.5512 22.5279 10.6846 22.3795L20.379 12.7104L30.0734 3.04123C30.2175 2.9035 30.3322 2.73801 30.4105 2.55473C30.4889 2.37145 30.5293 2.17419 30.5293 1.97486C30.5293 1.77554 30.4889 1.57828 30.4105 1.395C30.3322 1.21171 30.2175 1.0462 30.0734 0.908465C29.7894 0.627897 29.4063 0.470581 29.007 0.470581C28.6078 0.470581 28.2247 0.627897 27.9406 0.908465L9.68986 19.134L3.08923 11.977Z" fill="white"/>
</svg>
