<svg width="16" height="31" viewBox="0 0 16 31" fill="none" xmlns="http://www.w3.org/2000/svg">
<path d="M13.1605 9.98557V6.47599H13.1692C13.4178 6.48213 13.665 6.42772 13.8964 6.3159C14.1279 6.20407 14.3391 6.03706 14.5179 5.82444C14.6967 5.61181 14.8396 5.35779 14.9383 5.07698C15.037 4.79618 15.0896 4.49413 15.093 4.18822V2.97713C15.0891 2.34884 14.8858 1.7473 14.5263 1.30096C14.1669 0.85462 13.6798 0.598853 13.1692 0.588257H1.92336C1.41277 0.598856 0.925784 0.854639 0.566411 1.30099C0.207037 1.74735 0.00376239 2.34889 0 2.97713V4.18879C0.00346155 4.49465 0.0560381 4.79665 0.15471 5.07741C0.253382 5.35818 0.396202 5.61217 0.574951 5.82478C0.7537 6.0374 0.964849 6.20444 1.19626 6.31629C1.42767 6.42815 1.67478 6.48262 1.92336 6.47656H2.11666V9.98614C2.11797 11.1077 2.34468 12.2115 2.77662 13.1993C3.20857 14.187 3.83233 15.028 4.59237 15.6474C3.83164 16.2659 3.20734 17.1067 2.77531 18.0946C2.34329 19.0825 2.11699 20.1868 2.11666 21.3086V24.8187H1.92336C1.67484 24.8126 1.42778 24.867 1.1964 24.9787C0.965022 25.0905 0.753886 25.2574 0.575137 25.4699C0.396387 25.6824 0.253554 25.9363 0.15485 26.217C0.0561459 26.4977 0.00352086 26.7996 0 27.1054V28.317C0.00376239 28.9453 0.207037 29.5468 0.566411 29.9932C0.925784 30.4395 1.41277 30.6953 1.92336 30.7059H13.1605C13.6711 30.6953 14.1581 30.4395 14.5174 29.9932C14.8768 29.5468 15.0801 28.9453 15.0838 28.317V27.1054C15.0803 26.7996 15.0277 26.4977 14.929 26.217C14.8303 25.9363 14.6874 25.6824 14.5087 25.4699C14.3299 25.2574 14.1188 25.0905 13.8874 24.9787C13.6561 24.867 13.409 24.8126 13.1605 24.8187V21.3086C13.1589 20.187 12.932 19.0832 12.5 18.0956C12.068 17.1079 11.4443 16.2669 10.6843 15.6474C11.4452 15.0289 12.0696 14.188 12.5017 13.2C12.9338 12.2119 13.1602 11.1075 13.1605 9.98557ZM1.92336 4.21139C1.88663 4.21139 1.84071 4.23398 1.84071 4.18822V2.97713C1.84071 2.93194 1.88663 2.85286 1.92336 2.85286H13.1605C13.1972 2.85286 13.2431 2.93194 13.2431 2.97713V4.18879C13.2431 4.23455 13.1972 4.21196 13.1605 4.21196L1.92336 4.21139ZM13.1692 27.0822C13.2064 27.0822 13.2523 27.0596 13.2523 27.1048V28.3165C13.2523 28.3616 13.2064 28.4413 13.1692 28.4413H1.92336C1.88663 28.4413 1.84071 28.3616 1.84071 28.3165V27.1048C1.84071 27.0596 1.88663 27.0822 1.92336 27.0822H13.1692ZM11.3198 21.308V24.8182H3.95737V21.308C3.96819 20.1156 4.3608 18.9766 5.04998 18.1381C5.73917 17.2997 6.66931 16.8294 7.63857 16.8294C8.60782 16.8294 9.53797 17.2997 10.2272 18.1381C10.9163 18.9766 11.3089 20.1156 11.3198 21.308ZM7.63834 14.5148C7.15487 14.5149 6.67612 14.3979 6.22944 14.1703C5.78276 13.9427 5.37691 13.6091 5.03507 13.1885C4.69323 12.7679 4.42211 12.2685 4.23719 11.719C4.05227 11.1694 3.95719 10.5804 3.95737 9.98557V6.47599H11.3198V9.98557C11.3199 10.5804 11.2247 11.1694 11.0398 11.719C10.8548 12.2686 10.5836 12.7679 10.2418 13.1885C9.89989 13.6091 9.49401 13.9427 9.0473 14.1703C8.6006 14.3979 8.12182 14.5149 7.63834 14.5148Z" fill="white"/>
</svg>
