<svg width="81" height="80" viewBox="0 0 81 80" fill="none" xmlns="http://www.w3.org/2000/svg">
<path d="M57.2812 16.0002H24.4432C24.2589 15.9994 24.0774 16.0447 23.9151 16.1319C23.7528 16.2192 23.6149 16.3456 23.514 16.4998L14.1868 30.2364C14.0552 30.435 13.9902 30.6703 14.0012 30.9082C14.0122 31.1462 14.0987 31.3746 14.2482 31.5601L39.9944 63.3463C40.0985 63.4793 40.2316 63.5868 40.3834 63.6608C40.5353 63.7347 40.702 63.7732 40.871 63.7732C41.0399 63.7732 41.2066 63.7347 41.3585 63.6608C41.5104 63.5868 41.6435 63.4793 41.7476 63.3463L67.4938 31.5601C67.6432 31.3746 67.7297 31.1462 67.7408 30.9082C67.7518 30.6703 67.6868 30.435 67.5552 30.2364L58.2368 16.4998C58.1323 16.343 57.99 16.215 57.823 16.1277C57.656 16.0403 57.4697 15.9966 57.2812 16.0002ZM55.4754 20.4797L61.3838 29.4299H55.002L50.1807 20.4797H55.4754ZM36.6282 20.4797H45.0875L49.9089 29.4299H31.8155L36.6282 20.4797ZM26.249 20.4797H31.5087L26.6873 29.4299H20.3056L26.249 20.4797ZM22.2341 33.9094H27.0292L33.4022 48.8119L22.2341 33.9094ZM31.8331 33.9094H49.8914L40.8622 56.6138L31.8331 33.9182V33.9094ZM48.3222 48.8119L54.6865 33.9094H59.4816L48.3222 48.8119Z" fill="#F2F2F2"/>
</svg>
