<svg width="91" height="91" viewBox="0 0 91 91" fill="none" xmlns="http://www.w3.org/2000/svg">
<path d="M45.5001 88C69.0446 88 88.1312 68.9721 88.1312 45.5C88.1312 22.0279 69.0446 3 45.5001 3C21.9555 3 2.8689 22.0279 2.8689 45.5C2.8689 68.9721 21.9555 88 45.5001 88Z" stroke="black" stroke-opacity="0.5" stroke-width="5" stroke-miterlimit="10"/>
<path d="M63.0113 25.5215H28.0132C27.8168 25.5206 27.6233 25.5687 27.4503 25.6614C27.2774 25.7542 27.1304 25.8885 27.0229 26.0523L17.0821 40.6475C16.9419 40.8585 16.8726 41.1084 16.8843 41.3613C16.8961 41.6141 16.9883 41.8568 17.1475 42.0539L44.5873 75.8266C44.6983 75.968 44.8401 76.0822 45.002 76.1608C45.1638 76.2394 45.3415 76.2803 45.5216 76.2803C45.7016 76.2803 45.8793 76.2394 46.0412 76.1608C46.2031 76.0822 46.3449 75.968 46.4559 75.8266L73.8957 42.0539C74.0549 41.8568 74.1471 41.6141 74.1589 41.3613C74.1706 41.1084 74.1013 40.8585 73.9611 40.6475L64.0297 26.0523C63.9183 25.8857 63.7666 25.7497 63.5887 25.6569C63.4107 25.5641 63.2121 25.5176 63.0113 25.5215ZM61.0867 30.2809L67.3837 39.7905H60.5822L55.4437 30.2809H61.0867ZM40.9997 30.2809H50.0155L55.154 39.7905H35.8705L40.9997 30.2809ZM29.9378 30.2809H35.5435L30.405 39.7905H23.6034L29.9378 30.2809ZM25.6588 44.55H30.7693L37.5615 60.3839L25.6588 44.55ZM35.8892 44.55H55.1353L45.5123 68.6734L35.8892 44.5593V44.55ZM53.463 60.3839L60.2458 44.55H65.3564L53.463 60.3839Z" fill="black" fill-opacity="0.5"/>
</svg>
