<svg width="11" height="10" viewBox="0 0 11 10" fill="none" xmlns="http://www.w3.org/2000/svg">
<path d="M5.63606 0.247532L6.68228 3.32791C6.68228 3.43792 6.91476 3.54795 7.03101 3.54795H10.4021C10.7509 3.54795 10.9834 3.98805 10.6346 4.20808L7.96098 6.07826C7.84473 6.18828 7.7285 6.29832 7.84474 6.51834L8.89095 9.48874C9.00719 9.81878 8.65846 10.1488 8.30972 9.92875L5.63606 8.05857C5.51982 7.94855 5.28733 7.94855 5.17109 8.05857L2.49743 9.92875C2.14869 10.1488 1.79995 9.81878 1.9162 9.48874L2.96241 6.51834C2.96241 6.40833 2.96241 6.18828 2.84617 6.07826L0.172512 4.20808C-0.176225 3.98805 0.0562628 3.54795 0.405 3.54795H3.77613C3.89238 3.54795 4.12487 3.43792 4.12487 3.32791L5.17109 0.247532C5.05484 -0.0825105 5.51982 -0.0825105 5.63606 0.247532Z" fill="#FFB400"/>
</svg>
