<svg width="12" height="10" viewBox="0 0 12 10" fill="none" xmlns="http://www.w3.org/2000/svg">
<path d="M6.44321 0.247532L7.48941 3.32791C7.48941 3.43792 7.72191 3.54795 7.83815 3.54795H11.2093C11.558 3.54795 11.7905 3.98805 11.4418 4.20808L8.76813 6.07826C8.65188 6.18828 8.53563 6.29832 8.65187 6.51834L9.6981 9.48874C9.81435 9.81878 9.46561 10.1488 9.11687 9.92875L6.44321 8.05857C6.32696 7.94855 6.09447 7.94855 5.97823 8.05857L3.30456 9.92875C2.95583 10.1488 2.60709 9.81878 2.72333 9.48874L3.76954 6.51834C3.76954 6.40833 3.76955 6.18828 3.65331 6.07826L0.979642 4.20808C0.630903 3.98805 0.863392 3.54795 1.21213 3.54795H4.58326C4.69951 3.54795 4.932 3.43792 4.932 3.32791L5.97823 0.247532C5.86198 -0.0825105 6.32696 -0.0825105 6.44321 0.247532Z" fill="#FFB400"/>
</svg>
