<svg width="12" height="10" viewBox="0 0 12 10" fill="none" xmlns="http://www.w3.org/2000/svg">
<path d="M6.25044 0.247532L7.29665 3.32791C7.29665 3.43792 7.52914 3.54795 7.64539 3.54795H11.0165C11.3652 3.54795 11.5977 3.98805 11.249 4.20808L8.57536 6.07826C8.45911 6.18828 8.34286 6.29832 8.4591 6.51834L9.50533 9.48874C9.62157 9.81878 9.27283 10.1488 8.9241 9.92875L6.25044 8.05857C6.13419 7.94855 5.90169 7.94855 5.78545 8.05857L3.11181 9.92875C2.76307 10.1488 2.41433 9.81878 2.53058 9.48874L3.57678 6.51834C3.57678 6.40833 3.57678 6.18828 3.46053 6.07826L0.786892 4.20808C0.438155 3.98805 0.670643 3.54795 1.01938 3.54795H4.3905C4.50675 3.54795 4.73924 3.43792 4.73924 3.32791L5.78545 0.247532C5.6692 -0.0825105 6.13419 -0.0825105 6.25044 0.247532Z" fill="#FFB400"/>
</svg>
