<svg width="12" height="10" viewBox="0 0 12 10" fill="none" xmlns="http://www.w3.org/2000/svg">
<path d="M6.05758 0.247532L7.10379 3.32791C7.10379 3.43792 7.33628 3.54795 7.45253 3.54795H10.8236C11.1724 3.54795 11.4049 3.98805 11.0561 4.20808L8.3825 6.07826C8.26625 6.18828 8.15 6.29832 8.26624 6.51834L9.31245 9.48874C9.4287 9.81878 9.07996 10.1488 8.73122 9.92875L6.05758 8.05857C5.94134 7.94855 5.70883 7.94855 5.59259 8.05857L2.91893 9.92875C2.57019 10.1488 2.22146 9.81878 2.3377 9.48874L3.38393 6.51834C3.38393 6.40833 3.38392 6.18828 3.26767 6.07826L0.594016 4.20808C0.245279 3.98805 0.477784 3.54795 0.826522 3.54795H4.19764C4.31389 3.54795 4.54638 3.43792 4.54638 3.32791L5.59259 0.247532C5.3601 -0.0825105 5.94134 -0.0825105 6.05758 0.247532Z" fill="#FFB400"/>
</svg>
