<svg width="12" height="10" viewBox="0 0 12 10" fill="none" xmlns="http://www.w3.org/2000/svg">
<path d="M6.03691 0.247532L7.08285 3.32791C7.08285 3.43792 7.31529 3.54795 7.43151 3.54795H10.8018C11.1505 3.54795 11.3829 3.98805 11.0342 4.20808L8.36125 6.07826C8.24503 6.18828 8.12881 6.29832 8.24503 6.51834L9.29097 9.48874C9.40719 9.81878 9.05854 10.1488 8.70989 9.92875L6.03691 8.05857C5.92069 7.94855 5.68825 7.94855 5.57203 8.05857L2.89903 9.92875C2.55038 10.1488 2.20173 9.81878 2.31794 9.48874L3.36391 6.51834C3.36391 6.40833 3.3639 6.18828 3.24768 6.07826L0.574686 4.20808C0.226035 3.98805 0.458483 3.54795 0.807135 3.54795H4.17743C4.29364 3.54795 4.52608 3.43792 4.52608 3.32791L5.57203 0.247532C5.33959 -0.0825105 5.92069 -0.0825105 6.03691 0.247532Z" fill="#FFB400"/>
</svg>
