<svg width="12" height="10" viewBox="0 0 12 10" fill="none" xmlns="http://www.w3.org/2000/svg">
<path d="M5.84146 0.247532L6.88742 3.32791C6.88742 3.43792 7.11986 3.54795 7.23608 3.54795H10.6064C10.955 3.54795 11.1874 3.98805 10.8388 4.20808L8.1658 6.07826C8.04958 6.18828 7.93338 6.29832 8.04959 6.51834L9.09554 9.48874C9.21176 9.81878 8.86311 10.1488 8.51445 9.92875L5.84146 8.05857C5.72524 7.94855 5.49281 7.94855 5.3766 8.05857L2.7036 9.92875C2.35495 10.1488 2.0063 9.81878 2.12251 9.48874L3.16848 6.51834C3.16848 6.40833 3.16847 6.18828 3.05225 6.07826L0.379257 4.20808C0.0306054 3.98805 0.263036 3.54795 0.611687 3.54795H3.98199C4.09821 3.54795 4.33065 3.43792 4.33065 3.32791L5.3766 0.247532C5.14416 -0.0825105 5.72524 -0.0825105 5.84146 0.247532Z" fill="#FFB400"/>
</svg>
