<svg width="12" height="10" viewBox="0 0 12 10" fill="none" xmlns="http://www.w3.org/2000/svg">
<path d="M5.8647 0.247532L6.91092 3.32791C6.91092 3.43792 7.14341 3.54795 7.25966 3.54795H10.6308C10.9795 3.54795 11.212 3.98805 10.8633 4.20808L8.18961 6.07826C8.07336 6.18828 7.95713 6.29832 8.07337 6.51834L9.11958 9.48874C9.23582 9.81878 8.88709 10.1488 8.53835 9.92875L5.8647 8.05857C5.74845 7.94855 5.51597 7.94855 5.39972 8.05857L2.72606 9.92875C2.37733 10.1488 2.02859 9.81878 2.14484 9.48874L3.19106 6.51834C3.19106 6.40833 3.19105 6.18828 3.07481 6.07826L0.40115 4.20808C0.0524126 3.98805 0.284901 3.54795 0.633638 3.54795H4.00477C4.12102 3.54795 4.35352 3.43792 4.35352 3.32791L5.39972 0.247532C5.16723 -0.0825105 5.74845 -0.0825105 5.8647 0.247532Z" fill="#FFB400"/>
</svg>
