<svg width="12" height="10" viewBox="0 0 12 10" fill="none" xmlns="http://www.w3.org/2000/svg">
<path d="M6.23245 0.247532L7.2784 3.32791C7.2784 3.43792 7.51084 3.54795 7.62705 3.54795H10.9973C11.346 3.54795 11.5784 3.98805 11.2298 4.20808L8.55679 6.07826C8.44058 6.18828 8.32435 6.29832 8.44057 6.51834L9.48654 9.48874C9.60275 9.81878 9.2541 10.1488 8.90545 9.92875L6.23245 8.05857C6.11623 7.94855 5.88379 7.94855 5.76757 8.05857L3.09459 9.92875C2.74594 10.1488 2.39729 9.81878 2.51351 9.48874L3.55945 6.51834C3.55945 6.40833 3.55945 6.18828 3.44323 6.07826L0.770248 4.20808C0.421597 3.98805 0.654027 3.54795 1.00268 3.54795H4.37297C4.48919 3.54795 4.72162 3.43792 4.72162 3.32791L5.76757 0.247532C5.65135 -0.0825105 6.11623 -0.0825105 6.23245 0.247532Z" fill="#FFB400"/>
</svg>
