<svg width="12" height="10" viewBox="0 0 12 10" fill="none" xmlns="http://www.w3.org/2000/svg">
<path d="M6.4279 0.247532L7.47385 3.32791C7.47385 3.43792 7.70629 3.54795 7.82251 3.54795H11.1928C11.5415 3.54795 11.7739 3.98805 11.4253 4.20808L8.75225 6.07826C8.63603 6.18828 8.51981 6.29832 8.63603 6.51834L9.68199 9.48874C9.79821 9.81878 9.44956 10.1488 9.10091 9.92875L6.4279 8.05857C6.31168 7.94855 6.07926 7.94855 5.96304 8.05857L3.29003 9.92875C2.94138 10.1488 2.59273 9.81878 2.70895 9.48874L3.7549 6.51834C3.7549 6.40833 3.75491 6.18828 3.63869 6.07826L0.965683 4.20808C0.617031 3.98805 0.849462 3.54795 1.19811 3.54795H4.56841C4.68463 3.54795 4.91707 3.43792 4.91707 3.32791L5.96304 0.247532C5.84682 -0.0825105 6.31168 -0.0825105 6.4279 0.247532Z" fill="#FFB400"/>
</svg>
