<svg width="12" height="10" viewBox="0 0 12 10" fill="none" xmlns="http://www.w3.org/2000/svg">
<path d="M6.62344 0.247532L7.66941 3.32791C7.66941 3.43792 7.90183 3.54795 8.01805 3.54795H11.3884C11.737 3.54795 11.9694 3.98805 11.6208 4.20808L8.94779 6.07826C8.83157 6.18828 8.71536 6.29832 8.83158 6.51834L9.87753 9.48874C9.99375 9.81878 9.64509 10.1488 9.29644 9.92875L6.62344 8.05857C6.50723 7.94855 6.2748 7.94855 6.15858 8.05857L3.48558 9.92875C3.13693 10.1488 2.78828 9.81878 2.9045 9.48874L3.95045 6.51834C3.95045 6.40833 3.95046 6.18828 3.83424 6.07826L1.16124 4.20808C0.812588 3.98805 1.04502 3.54795 1.39367 3.54795H4.76397C4.88019 3.54795 5.11263 3.43792 5.11263 3.32791L6.15858 0.247532C6.04237 -0.0825105 6.50723 -0.0825105 6.62344 0.247532Z" fill="#FFB400"/>
</svg>
